<svg width="25" height="14" viewBox="0 0 25 14" fill="none" xmlns="http://www.w3.org/2000/svg">
<path d="M2.34295 8.53767C2.23477 8.82282 2.0157 9.05601 1.73228 9.18769C1.44886 9.31936 1.12343 9.33915 0.825139 9.24285C0.526848 9.14654 0.279204 8.94173 0.134827 8.67194C-0.00955 8.40214 -0.0392818 8.08862 0.0519491 7.798C0.0277825 7.868 0.0519491 7.79567 0.0519491 7.79567C0.0949225 7.66719 0.144938 7.54101 0.201783 7.41767C0.298449 7.196 0.441032 6.89033 0.636782 6.52867C1.03553 5.80533 1.65662 4.84167 2.57253 3.878C4.42128 1.92967 7.44937 0 12.0724 0C16.6955 0 19.7236 1.92967 21.5724 3.878C22.5592 4.92328 23.3595 6.11941 23.9407 7.41767L24.0519 7.68133C24.0591 7.7 24.0833 7.82133 24.1074 7.938L24.1558 8.16667C24.1558 8.16667 24.3588 8.94367 23.3293 9.27267C23.0261 9.37042 22.6951 9.34821 22.4089 9.21089C22.1226 9.07357 21.9044 8.83234 21.8019 8.54V8.533L21.7874 8.49567C21.666 8.19593 21.5273 7.90302 21.3718 7.61833C20.9421 6.83554 20.411 6.10871 19.7913 5.45533C18.3171 3.90367 15.9077 2.33333 12.0724 2.33333C8.2372 2.33333 5.82778 3.90367 4.35362 5.45533C3.55549 6.30016 2.90644 7.26578 2.43237 8.31367C2.40701 8.37389 2.38284 8.43456 2.35987 8.49567L2.34295 8.53767V8.53767ZM7.23912 9.33333C7.23912 8.09566 7.74834 6.90867 8.65477 6.0335C9.56119 5.15833 10.7906 4.66667 12.0724 4.66667C13.3543 4.66667 14.5837 5.15833 15.4901 6.0335C16.3966 6.90867 16.9058 8.09566 16.9058 9.33333C16.9058 10.571 16.3966 11.758 15.4901 12.6332C14.5837 13.5083 13.3543 14 12.0724 14C10.7906 14 9.56119 13.5083 8.65477 12.6332C7.74834 11.758 7.23912 10.571 7.23912 9.33333V9.33333Z" fill="black"/>
</svg>
