<svg width="448" height="190" viewBox="0 0 448 190" fill="none" xmlns="http://www.w3.org/2000/svg">
<path d="M31.776 187.108C30.92 187.108 30.188 186.932 29.58 186.58C28.972 186.228 28.504 185.728 28.176 185.08C27.856 184.424 27.696 183.652 27.696 182.764C27.696 182.1 27.788 181.504 27.972 180.976C28.156 180.44 28.42 179.984 28.764 179.608C29.116 179.224 29.544 178.932 30.048 178.732C30.56 178.532 31.136 178.432 31.776 178.432C32.248 178.432 32.7 178.496 33.132 178.624C33.572 178.752 33.952 178.936 34.272 179.176C34.408 179.264 34.496 179.372 34.536 179.5C34.584 179.62 34.592 179.736 34.56 179.848C34.536 179.96 34.484 180.056 34.404 180.136C34.324 180.208 34.22 180.248 34.092 180.256C33.972 180.264 33.84 180.22 33.696 180.124C33.432 179.924 33.14 179.776 32.82 179.68C32.5 179.584 32.164 179.536 31.812 179.536C31.204 179.536 30.692 179.664 30.276 179.92C29.86 180.168 29.544 180.532 29.328 181.012C29.112 181.492 29.004 182.076 29.004 182.764C29.004 183.452 29.112 184.04 29.328 184.528C29.544 185.008 29.86 185.376 30.276 185.632C30.692 185.88 31.204 186.004 31.812 186.004C32.164 186.004 32.5 185.956 32.82 185.86C33.148 185.756 33.456 185.604 33.744 185.404C33.888 185.316 34.016 185.276 34.128 185.284C34.248 185.292 34.348 185.332 34.428 185.404C34.508 185.476 34.56 185.568 34.584 185.68C34.616 185.784 34.612 185.896 34.572 186.016C34.54 186.128 34.464 186.224 34.344 186.304C34.016 186.568 33.628 186.768 33.18 186.904C32.732 187.04 32.264 187.108 31.776 187.108ZM40.2242 187.108C39.5842 187.108 39.0322 186.988 38.5682 186.748C38.1122 186.5 37.7562 186.152 37.5002 185.704C37.2522 185.248 37.1282 184.708 37.1282 184.084C37.1282 183.476 37.2522 182.944 37.5002 182.488C37.7482 182.032 38.0882 181.676 38.5202 181.42C38.9522 181.164 39.4442 181.036 39.9962 181.036C40.4042 181.036 40.7682 181.104 41.0882 181.24C41.4082 181.368 41.6802 181.56 41.9042 181.816C42.1362 182.064 42.3082 182.368 42.4202 182.728C42.5402 183.088 42.6002 183.492 42.6002 183.94C42.6002 184.076 42.5602 184.18 42.4802 184.252C42.4002 184.316 42.2802 184.348 42.1202 184.348H38.0882V183.604H41.7842L41.5802 183.772C41.5802 183.372 41.5202 183.032 41.4002 182.752C41.2882 182.472 41.1162 182.26 40.8842 182.116C40.6602 181.964 40.3802 181.888 40.0442 181.888C39.6682 181.888 39.3482 181.976 39.0842 182.152C38.8282 182.328 38.6322 182.572 38.4962 182.884C38.3602 183.196 38.2922 183.56 38.2922 183.976V184.048C38.2922 184.752 38.4562 185.284 38.7842 185.644C39.1202 185.996 39.6042 186.172 40.2362 186.172C40.4762 186.172 40.7282 186.14 40.9922 186.076C41.2642 186.012 41.5202 185.904 41.7602 185.752C41.8962 185.672 42.0162 185.636 42.1202 185.644C42.2322 185.652 42.3202 185.688 42.3842 185.752C42.4562 185.816 42.5002 185.896 42.5162 185.992C42.5322 186.088 42.5162 186.188 42.4682 186.292C42.4202 186.388 42.3362 186.476 42.2162 186.556C41.9442 186.74 41.6282 186.88 41.2682 186.976C40.9082 187.064 40.5602 187.108 40.2242 187.108ZM46.2104 187.084C46.0184 187.084 45.8664 187.032 45.7544 186.928C45.6504 186.816 45.5984 186.664 45.5984 186.472V181.672C45.5984 181.464 45.6504 181.312 45.7544 181.216C45.8664 181.112 46.0184 181.06 46.2104 181.06C46.4024 181.06 46.5504 181.112 46.6544 181.216C46.7584 181.312 46.8104 181.464 46.8104 181.672V183.508H49.7264V181.672C49.7264 181.464 49.7744 181.312 49.8704 181.216C49.9744 181.112 50.1264 181.06 50.3264 181.06C50.5184 181.06 50.6664 181.112 50.7704 181.216C50.8824 181.312 50.9384 181.464 50.9384 181.672V186.472C50.9384 186.664 50.8824 186.816 50.7704 186.928C50.6664 187.032 50.5184 187.084 50.3264 187.084C50.1264 187.084 49.9744 187.032 49.8704 186.928C49.7744 186.816 49.7264 186.664 49.7264 186.472V184.468H46.8104V186.472C46.8104 186.664 46.7584 186.816 46.6544 186.928C46.5584 187.032 46.4104 187.084 46.2104 187.084ZM67.499 187.108C66.699 187.108 65.999 186.932 65.399 186.58C64.807 186.22 64.347 185.716 64.019 185.068C63.699 184.412 63.539 183.644 63.539 182.764C63.539 182.1 63.631 181.504 63.815 180.976C63.999 180.44 64.263 179.984 64.607 179.608C64.951 179.224 65.367 178.932 65.855 178.732C66.343 178.532 66.891 178.432 67.499 178.432C68.307 178.432 69.007 178.608 69.599 178.96C70.191 179.312 70.647 179.812 70.967 180.46C71.295 181.108 71.459 181.872 71.459 182.752C71.459 183.416 71.367 184.016 71.183 184.552C70.999 185.088 70.731 185.548 70.379 185.932C70.035 186.316 69.619 186.608 69.131 186.808C68.643 187.008 68.099 187.108 67.499 187.108ZM67.499 186.028C68.059 186.028 68.535 185.9 68.927 185.644C69.327 185.388 69.631 185.016 69.839 184.528C70.055 184.04 70.163 183.452 70.163 182.764C70.163 181.732 69.931 180.932 69.467 180.364C69.003 179.796 68.347 179.512 67.499 179.512C66.939 179.512 66.459 179.64 66.059 179.896C65.667 180.144 65.363 180.512 65.147 181C64.939 181.488 64.835 182.076 64.835 182.764C64.835 183.788 65.067 184.588 65.531 185.164C66.003 185.74 66.659 186.028 67.499 186.028ZM75.2317 187.084C75.0397 187.084 74.8877 187.032 74.7757 186.928C74.6717 186.816 74.6197 186.664 74.6197 186.472V181.696C74.6197 181.496 74.6717 181.344 74.7757 181.24C74.8877 181.136 75.0397 181.084 75.2317 181.084C75.4237 181.084 75.5717 181.136 75.6757 181.24C75.7797 181.344 75.8317 181.496 75.8317 181.696V183.52H76.8157L78.4717 181.36C78.5597 181.232 78.6597 181.152 78.7717 181.12C78.8917 181.088 79.0037 181.088 79.1077 181.12C79.2197 181.152 79.3077 181.212 79.3717 181.3C79.4437 181.38 79.4797 181.48 79.4797 181.6C79.4797 181.712 79.4357 181.832 79.3477 181.96L77.7757 184.036L77.4757 183.652C77.6997 183.676 77.8957 183.732 78.0637 183.82C78.2317 183.908 78.3877 184.04 78.5317 184.216C78.6837 184.392 78.8437 184.624 79.0117 184.912L79.8037 186.256C79.8757 186.392 79.8997 186.52 79.8757 186.64C79.8597 186.752 79.8077 186.848 79.7197 186.928C79.6317 187 79.5317 187.044 79.4197 187.06C79.3077 187.084 79.1917 187.072 79.0717 187.024C78.9597 186.976 78.8637 186.884 78.7837 186.748L77.9077 185.248C77.7877 185.048 77.6677 184.892 77.5477 184.78C77.4357 184.66 77.3117 184.58 77.1757 184.54C77.0397 184.492 76.8677 184.468 76.6597 184.468H75.8317V186.472C75.8317 186.664 75.7797 186.816 75.6757 186.928C75.5717 187.032 75.4237 187.084 75.2317 187.084ZM84.5078 187.084C84.3158 187.084 84.1638 187.032 84.0518 186.928C83.9478 186.816 83.8958 186.664 83.8958 186.472V182.116H82.2638C81.9118 182.116 81.7358 181.952 81.7358 181.624C81.7358 181.48 81.7838 181.364 81.8798 181.276C81.9758 181.188 82.1038 181.144 82.2638 181.144H86.7398C87.0918 181.144 87.2678 181.304 87.2678 181.624C87.2678 181.784 87.2198 181.908 87.1238 181.996C87.0358 182.076 86.9078 182.116 86.7398 182.116H85.1078V186.472C85.1078 186.664 85.0558 186.816 84.9518 186.928C84.8558 187.032 84.7078 187.084 84.5078 187.084ZM104.584 187.084C104.384 187.084 104.228 187.028 104.116 186.916C104.012 186.804 103.96 186.648 103.96 186.448V179.092C103.96 178.884 104.012 178.728 104.116 178.624C104.228 178.512 104.384 178.456 104.584 178.456C104.784 178.456 104.936 178.512 105.04 178.624C105.152 178.728 105.208 178.884 105.208 179.092V182.188H109.948V179.092C109.948 178.884 110 178.728 110.104 178.624C110.216 178.512 110.372 178.456 110.572 178.456C110.772 178.456 110.924 178.512 111.028 178.624C111.132 178.728 111.184 178.884 111.184 179.092V186.448C111.184 186.648 111.132 186.804 111.028 186.916C110.924 187.028 110.772 187.084 110.572 187.084C110.372 187.084 110.216 187.028 110.104 186.916C110 186.804 109.948 186.648 109.948 186.448V183.232H105.208V186.448C105.208 186.648 105.156 186.804 105.052 186.916C104.948 187.028 104.792 187.084 104.584 187.084ZM117.204 187.108C116.612 187.108 116.1 186.984 115.668 186.736C115.244 186.488 114.912 186.136 114.672 185.68C114.432 185.224 114.312 184.688 114.312 184.072C114.312 183.6 114.38 183.18 114.516 182.812C114.652 182.444 114.844 182.128 115.092 181.864C115.348 181.592 115.652 181.388 116.004 181.252C116.364 181.108 116.764 181.036 117.204 181.036C117.788 181.036 118.292 181.16 118.716 181.408C119.148 181.656 119.484 182.008 119.724 182.464C119.964 182.912 120.084 183.448 120.084 184.072C120.084 184.536 120.016 184.956 119.88 185.332C119.744 185.708 119.548 186.028 119.292 186.292C119.044 186.556 118.74 186.76 118.38 186.904C118.028 187.04 117.636 187.108 117.204 187.108ZM117.204 186.172C117.532 186.172 117.82 186.092 118.068 185.932C118.316 185.772 118.508 185.536 118.644 185.224C118.788 184.912 118.86 184.528 118.86 184.072C118.86 183.384 118.708 182.864 118.404 182.512C118.1 182.16 117.7 181.984 117.204 181.984C116.868 181.984 116.576 182.064 116.328 182.224C116.08 182.376 115.884 182.608 115.74 182.92C115.604 183.232 115.536 183.616 115.536 184.072C115.536 184.752 115.688 185.272 115.992 185.632C116.296 185.992 116.7 186.172 117.204 186.172ZM127.333 187.084C127.149 187.084 127.009 187.036 126.913 186.94C126.817 186.836 126.769 186.692 126.769 186.508V184.864H126.013C125.733 184.864 125.493 184.936 125.293 185.08C125.093 185.224 124.929 185.408 124.801 185.632L124.165 186.748C124.077 186.892 123.973 186.988 123.853 187.036C123.733 187.092 123.613 187.104 123.493 187.072C123.373 187.04 123.269 186.98 123.181 186.892C123.093 186.804 123.037 186.7 123.013 186.58C122.997 186.452 123.029 186.32 123.109 186.184L123.589 185.368C123.717 185.144 123.893 184.956 124.117 184.804C124.349 184.644 124.581 184.564 124.813 184.564H125.005V184.684C124.341 184.684 123.825 184.532 123.457 184.228C123.089 183.924 122.905 183.492 122.905 182.932C122.905 182.572 122.985 182.26 123.145 181.996C123.313 181.724 123.561 181.516 123.889 181.372C124.217 181.22 124.621 181.144 125.101 181.144H127.273C127.473 181.144 127.625 181.2 127.729 181.312C127.841 181.416 127.897 181.568 127.897 181.768V186.508C127.897 186.692 127.845 186.836 127.741 186.94C127.637 187.036 127.501 187.084 127.333 187.084ZM125.353 184.036H126.769V181.972H125.353C124.913 181.972 124.589 182.064 124.381 182.248C124.173 182.424 124.069 182.672 124.069 182.992C124.069 183.32 124.173 183.576 124.381 183.76C124.589 183.944 124.913 184.036 125.353 184.036ZM145.284 189.016C145.1 189.016 144.96 188.964 144.864 188.86C144.768 188.764 144.72 188.624 144.72 188.44V186.58C144.72 186.188 144.92 185.992 145.32 185.992H146.124L145.38 186.184C145.844 185.704 146.184 185.02 146.4 184.132C146.624 183.236 146.736 182.104 146.736 180.736V179.212C146.736 178.996 146.792 178.832 146.904 178.72C147.024 178.6 147.192 178.54 147.408 178.54H151.86C152.076 178.54 152.24 178.6 152.352 178.72C152.464 178.832 152.52 178.996 152.52 179.212V186.472L152.052 185.992H153.132C153.324 185.992 153.468 186.044 153.564 186.148C153.668 186.244 153.72 186.388 153.72 186.58V188.44C153.72 188.824 153.54 189.016 153.18 189.016C152.996 189.016 152.856 188.964 152.76 188.86C152.664 188.764 152.616 188.624 152.616 188.44V187H145.836V188.44C145.836 188.824 145.652 189.016 145.284 189.016ZM146.832 185.992H151.284V179.548H147.9V180.832C147.9 182.064 147.812 183.096 147.636 183.928C147.46 184.76 147.192 185.448 146.832 185.992ZM159.229 187.108C158.589 187.108 158.037 186.988 157.573 186.748C157.117 186.5 156.761 186.152 156.505 185.704C156.257 185.248 156.133 184.708 156.133 184.084C156.133 183.476 156.257 182.944 156.505 182.488C156.753 182.032 157.093 181.676 157.525 181.42C157.957 181.164 158.449 181.036 159.001 181.036C159.409 181.036 159.773 181.104 160.093 181.24C160.413 181.368 160.685 181.56 160.909 181.816C161.141 182.064 161.313 182.368 161.425 182.728C161.545 183.088 161.605 183.492 161.605 183.94C161.605 184.076 161.565 184.18 161.485 184.252C161.405 184.316 161.285 184.348 161.125 184.348H157.093V183.604H160.789L160.585 183.772C160.585 183.372 160.525 183.032 160.405 182.752C160.293 182.472 160.121 182.26 159.889 182.116C159.665 181.964 159.385 181.888 159.049 181.888C158.673 181.888 158.353 181.976 158.089 182.152C157.833 182.328 157.637 182.572 157.501 182.884C157.365 183.196 157.297 183.56 157.297 183.976V184.048C157.297 184.752 157.461 185.284 157.789 185.644C158.125 185.996 158.609 186.172 159.241 186.172C159.481 186.172 159.733 186.14 159.997 186.076C160.269 186.012 160.525 185.904 160.765 185.752C160.901 185.672 161.021 185.636 161.125 185.644C161.237 185.652 161.325 185.688 161.389 185.752C161.461 185.816 161.505 185.896 161.521 185.992C161.537 186.088 161.521 186.188 161.473 186.292C161.425 186.388 161.341 186.476 161.221 186.556C160.949 186.74 160.633 186.88 160.273 186.976C159.913 187.064 159.565 187.108 159.229 187.108ZM165.215 187.084C165.023 187.084 164.871 187.032 164.759 186.928C164.655 186.816 164.603 186.664 164.603 186.472V181.696C164.603 181.496 164.655 181.344 164.759 181.24C164.871 181.136 165.023 181.084 165.215 181.084C165.407 181.084 165.555 181.136 165.659 181.24C165.763 181.344 165.815 181.496 165.815 181.696V183.52H166.799L168.455 181.36C168.543 181.232 168.643 181.152 168.755 181.12C168.875 181.088 168.987 181.088 169.091 181.12C169.203 181.152 169.291 181.212 169.355 181.3C169.427 181.38 169.463 181.48 169.463 181.6C169.463 181.712 169.419 181.832 169.331 181.96L167.759 184.036L167.459 183.652C167.683 183.676 167.879 183.732 168.047 183.82C168.215 183.908 168.371 184.04 168.515 184.216C168.667 184.392 168.827 184.624 168.995 184.912L169.787 186.256C169.859 186.392 169.883 186.52 169.859 186.64C169.843 186.752 169.791 186.848 169.703 186.928C169.615 187 169.515 187.044 169.403 187.06C169.291 187.084 169.175 187.072 169.055 187.024C168.943 186.976 168.847 186.884 168.767 186.748L167.891 185.248C167.771 185.048 167.651 184.892 167.531 184.78C167.419 184.66 167.295 184.58 167.159 184.54C167.023 184.492 166.851 184.468 166.643 184.468H165.815V186.472C165.815 186.664 165.763 186.816 165.659 186.928C165.555 187.032 165.407 187.084 165.215 187.084ZM197.179 187.084C196.979 187.084 196.823 187.028 196.711 186.916C196.607 186.804 196.555 186.648 196.555 186.448V183.508H195.319C195.087 183.508 194.883 183.532 194.707 183.58C194.539 183.62 194.387 183.696 194.251 183.808C194.123 183.92 194.003 184.084 193.891 184.3L192.583 186.7C192.495 186.86 192.387 186.968 192.259 187.024C192.139 187.08 192.019 187.096 191.899 187.072C191.779 187.056 191.671 187.004 191.575 186.916C191.487 186.828 191.431 186.72 191.407 186.592C191.391 186.464 191.423 186.32 191.503 186.16L192.511 184.312C192.695 183.976 192.907 183.724 193.147 183.556C193.387 183.388 193.667 183.304 193.987 183.304H194.347L194.287 183.472C193.383 183.472 192.679 183.256 192.175 182.824C191.679 182.392 191.431 181.792 191.431 181.024C191.431 180.496 191.539 180.048 191.755 179.68C191.979 179.312 192.303 179.032 192.727 178.84C193.159 178.64 193.679 178.54 194.287 178.54H197.131C197.347 178.54 197.511 178.6 197.623 178.72C197.735 178.832 197.791 178.996 197.791 179.212V186.448C197.791 186.648 197.739 186.804 197.635 186.916C197.531 187.028 197.379 187.084 197.179 187.084ZM194.491 182.572H196.555V179.536H194.491C193.883 179.536 193.423 179.664 193.111 179.92C192.799 180.176 192.643 180.552 192.643 181.048C192.643 181.552 192.799 181.932 193.111 182.188C193.423 182.444 193.883 182.572 194.491 182.572ZM201.856 187.084C201.664 187.084 201.512 187.032 201.4 186.928C201.296 186.816 201.244 186.664 201.244 186.472V181.672C201.244 181.464 201.296 181.312 201.4 181.216C201.512 181.112 201.664 181.06 201.856 181.06C202.048 181.06 202.196 181.112 202.3 181.216C202.404 181.312 202.456 181.464 202.456 181.672V183.508H205.372V181.672C205.372 181.464 205.42 181.312 205.516 181.216C205.62 181.112 205.772 181.06 205.972 181.06C206.164 181.06 206.312 181.112 206.416 181.216C206.528 181.312 206.584 181.464 206.584 181.672V186.472C206.584 186.664 206.528 186.816 206.416 186.928C206.312 187.032 206.164 187.084 205.972 187.084C205.772 187.084 205.62 187.032 205.516 186.928C205.42 186.816 205.372 186.664 205.372 186.472V184.468H202.456V186.472C202.456 186.664 202.404 186.816 202.3 186.928C202.204 187.032 202.056 187.084 201.856 187.084ZM210.564 187C210.364 187 210.212 186.948 210.108 186.844C210.004 186.732 209.952 186.58 209.952 186.388V181.768C209.952 181.568 210.004 181.416 210.108 181.312C210.212 181.2 210.364 181.144 210.564 181.144H212.94C213.42 181.144 213.812 181.204 214.116 181.324C214.428 181.444 214.656 181.62 214.8 181.852C214.944 182.076 215.016 182.352 215.016 182.68C215.016 183.056 214.888 183.372 214.632 183.628C214.376 183.876 214.04 184.024 213.624 184.072V183.916C214.128 183.94 214.516 184.084 214.788 184.348C215.068 184.612 215.208 184.952 215.208 185.368C215.208 185.872 215.02 186.272 214.644 186.568C214.268 186.856 213.732 187 213.036 187H210.564ZM211.092 186.22H212.964C213.324 186.22 213.6 186.144 213.792 185.992C213.992 185.832 214.092 185.604 214.092 185.308C214.092 185.012 213.992 184.788 213.792 184.636C213.6 184.484 213.324 184.408 212.964 184.408H211.092V186.22ZM211.092 183.628H212.856C213.184 183.628 213.436 183.552 213.612 183.4C213.796 183.248 213.888 183.04 213.888 182.776C213.888 182.504 213.796 182.296 213.612 182.152C213.436 182.008 213.184 181.936 212.856 181.936H211.092V183.628ZM241.349 187.372C241.149 187.372 240.993 187.316 240.881 187.204C240.777 187.092 240.725 186.936 240.725 186.736V185.992L241.049 186.328H240.737C239.937 186.328 239.245 186.184 238.661 185.896C238.085 185.608 237.641 185.196 237.329 184.66C237.017 184.116 236.861 183.464 236.861 182.704C236.861 182.128 236.945 181.616 237.113 181.168C237.289 180.72 237.541 180.34 237.869 180.028C238.205 179.716 238.613 179.48 239.093 179.32C239.581 179.16 240.129 179.08 240.737 179.08H241.049L240.725 179.416V178.744C240.725 178.536 240.777 178.38 240.881 178.276C240.993 178.164 241.149 178.108 241.349 178.108C241.549 178.108 241.701 178.164 241.805 178.276C241.917 178.38 241.973 178.536 241.973 178.744V179.416L241.649 179.08H241.949C242.773 179.08 243.473 179.224 244.049 179.512C244.625 179.792 245.065 180.204 245.369 180.748C245.681 181.284 245.837 181.936 245.837 182.704C245.837 183.272 245.745 183.78 245.561 184.228C245.385 184.676 245.129 185.056 244.793 185.368C244.457 185.68 244.049 185.92 243.569 186.088C243.097 186.248 242.557 186.328 241.949 186.328H241.649L241.973 185.992V186.736C241.973 186.936 241.921 187.092 241.817 187.204C241.713 187.316 241.557 187.372 241.349 187.372ZM240.725 185.596V179.812L241.013 180.052H240.593C240.225 180.052 239.889 180.108 239.585 180.22C239.289 180.332 239.029 180.5 238.805 180.724C238.589 180.948 238.421 181.228 238.301 181.564C238.189 181.892 238.133 182.272 238.133 182.704C238.133 183.264 238.237 183.744 238.445 184.144C238.653 184.536 238.941 184.836 239.309 185.044C239.685 185.252 240.113 185.356 240.593 185.356H241.013L240.725 185.596ZM241.961 185.596L241.685 185.356H242.093C242.461 185.356 242.793 185.3 243.089 185.188C243.393 185.068 243.653 184.896 243.869 184.672C244.085 184.44 244.253 184.16 244.373 183.832C244.493 183.504 244.553 183.128 244.553 182.704C244.553 182.12 244.449 181.632 244.241 181.24C244.041 180.848 243.757 180.552 243.389 180.352C243.021 180.152 242.589 180.052 242.093 180.052H241.685L241.961 179.812V185.596ZM251.756 187.108C251.116 187.108 250.564 186.988 250.1 186.748C249.644 186.5 249.288 186.152 249.032 185.704C248.784 185.248 248.66 184.708 248.66 184.084C248.66 183.476 248.784 182.944 249.032 182.488C249.28 182.032 249.62 181.676 250.052 181.42C250.484 181.164 250.976 181.036 251.528 181.036C251.936 181.036 252.3 181.104 252.62 181.24C252.94 181.368 253.212 181.56 253.436 181.816C253.668 182.064 253.84 182.368 253.952 182.728C254.072 183.088 254.132 183.492 254.132 183.94C254.132 184.076 254.092 184.18 254.012 184.252C253.932 184.316 253.812 184.348 253.652 184.348H249.62V183.604H253.316L253.112 183.772C253.112 183.372 253.052 183.032 252.932 182.752C252.82 182.472 252.648 182.26 252.416 182.116C252.192 181.964 251.912 181.888 251.576 181.888C251.2 181.888 250.88 181.976 250.616 182.152C250.36 182.328 250.164 182.572 250.028 182.884C249.892 183.196 249.824 183.56 249.824 183.976V184.048C249.824 184.752 249.988 185.284 250.316 185.644C250.652 185.996 251.136 186.172 251.768 186.172C252.008 186.172 252.26 186.14 252.524 186.076C252.796 186.012 253.052 185.904 253.292 185.752C253.428 185.672 253.548 185.636 253.652 185.644C253.764 185.652 253.852 185.688 253.916 185.752C253.988 185.816 254.032 185.896 254.048 185.992C254.064 186.088 254.048 186.188 254 186.292C253.952 186.388 253.868 186.476 253.748 186.556C253.476 186.74 253.16 186.88 252.8 186.976C252.44 187.064 252.092 187.108 251.756 187.108ZM257.742 187C257.542 187 257.39 186.948 257.286 186.844C257.182 186.732 257.13 186.58 257.13 186.388V181.768C257.13 181.568 257.182 181.416 257.286 181.312C257.39 181.2 257.542 181.144 257.742 181.144H260.118C260.598 181.144 260.99 181.204 261.294 181.324C261.606 181.444 261.834 181.62 261.978 181.852C262.122 182.076 262.194 182.352 262.194 182.68C262.194 183.056 262.066 183.372 261.81 183.628C261.554 183.876 261.218 184.024 260.802 184.072V183.916C261.306 183.94 261.694 184.084 261.966 184.348C262.246 184.612 262.386 184.952 262.386 185.368C262.386 185.872 262.198 186.272 261.822 186.568C261.446 186.856 260.91 187 260.214 187H257.742ZM258.27 186.22H260.142C260.502 186.22 260.778 186.144 260.97 185.992C261.17 185.832 261.27 185.604 261.27 185.308C261.27 185.012 261.17 184.788 260.97 184.636C260.778 184.484 260.502 184.408 260.142 184.408H258.27V186.22ZM258.27 183.628H260.034C260.362 183.628 260.614 183.552 260.79 183.4C260.974 183.248 261.066 183.04 261.066 182.776C261.066 182.504 260.974 182.296 260.79 182.152C260.614 182.008 260.362 181.936 260.034 181.936H258.27V183.628ZM284.926 187.084C284.742 187.084 284.598 187.032 284.494 186.928C284.398 186.824 284.35 186.68 284.35 186.496V179.044C284.35 178.852 284.402 178.708 284.506 178.612C284.61 178.508 284.75 178.456 284.926 178.456C285.094 178.456 285.222 178.488 285.31 178.552C285.406 178.608 285.494 178.712 285.574 178.864L288.718 184.732H288.346L291.478 178.864C291.558 178.712 291.642 178.608 291.73 178.552C291.818 178.488 291.946 178.456 292.114 178.456C292.29 178.456 292.426 178.508 292.522 178.612C292.618 178.708 292.666 178.852 292.666 179.044V186.496C292.666 186.68 292.618 186.824 292.522 186.928C292.434 187.032 292.298 187.084 292.114 187.084C291.93 187.084 291.79 187.032 291.694 186.928C291.598 186.824 291.55 186.68 291.55 186.496V180.304H291.814L289.03 185.452C288.966 185.572 288.898 185.66 288.826 185.716C288.754 185.772 288.654 185.8 288.526 185.8C288.398 185.8 288.294 185.772 288.214 185.716C288.134 185.652 288.062 185.564 287.998 185.452L285.19 180.292H285.478V186.496C285.478 186.68 285.43 186.824 285.334 186.928C285.246 187.032 285.11 187.084 284.926 187.084ZM298.034 187.108C297.626 187.108 297.258 187.028 296.93 186.868C296.61 186.708 296.358 186.492 296.174 186.22C295.99 185.948 295.898 185.64 295.898 185.296C295.898 184.864 296.006 184.524 296.222 184.276C296.446 184.02 296.81 183.84 297.314 183.736C297.826 183.624 298.514 183.568 299.378 183.568H299.942V184.312H299.39C298.814 184.312 298.358 184.34 298.022 184.396C297.686 184.452 297.446 184.548 297.302 184.684C297.166 184.812 297.098 184.992 297.098 185.224C297.098 185.528 297.202 185.776 297.41 185.968C297.618 186.152 297.906 186.244 298.274 186.244C298.57 186.244 298.83 186.176 299.054 186.04C299.278 185.896 299.454 185.704 299.582 185.464C299.718 185.224 299.786 184.948 299.786 184.636V183.256C299.786 182.8 299.69 182.472 299.498 182.272C299.306 182.072 298.99 181.972 298.55 181.972C298.294 181.972 298.026 182.004 297.746 182.068C297.474 182.132 297.19 182.24 296.894 182.392C296.758 182.456 296.642 182.476 296.546 182.452C296.45 182.428 296.374 182.376 296.318 182.296C296.262 182.208 296.23 182.116 296.222 182.02C296.222 181.916 296.246 181.816 296.294 181.72C296.35 181.624 296.442 181.552 296.57 181.504C296.922 181.336 297.27 181.216 297.614 181.144C297.958 181.072 298.282 181.036 298.586 181.036C299.122 181.036 299.562 181.12 299.906 181.288C300.258 181.456 300.518 181.712 300.686 182.056C300.854 182.4 300.938 182.844 300.938 183.388V186.472C300.938 186.664 300.89 186.816 300.794 186.928C300.698 187.032 300.558 187.084 300.374 187.084C300.198 187.084 300.058 187.032 299.954 186.928C299.85 186.816 299.798 186.664 299.798 186.472V185.692H299.906C299.842 185.988 299.722 186.244 299.546 186.46C299.378 186.668 299.166 186.828 298.91 186.94C298.654 187.052 298.362 187.108 298.034 187.108ZM304.908 189.244C304.716 189.244 304.568 189.192 304.464 189.088C304.36 188.984 304.308 188.832 304.308 188.632V181.672C304.308 181.472 304.36 181.32 304.464 181.216C304.568 181.112 304.712 181.06 304.896 181.06C305.088 181.06 305.236 181.112 305.34 181.216C305.444 181.32 305.496 181.472 305.496 181.672V182.716L305.364 182.464C305.492 182.032 305.744 181.688 306.12 181.432C306.496 181.168 306.94 181.036 307.452 181.036C307.972 181.036 308.424 181.16 308.808 181.408C309.2 181.656 309.5 182.004 309.708 182.452C309.924 182.9 310.032 183.44 310.032 184.072C310.032 184.688 309.924 185.228 309.708 185.692C309.5 186.148 309.204 186.5 308.82 186.748C308.436 186.988 307.98 187.108 307.452 187.108C306.948 187.108 306.508 186.98 306.132 186.724C305.756 186.468 305.504 186.128 305.376 185.704H305.52V188.632C305.52 188.832 305.464 188.984 305.352 189.088C305.248 189.192 305.1 189.244 304.908 189.244ZM307.152 186.172C307.488 186.172 307.78 186.092 308.028 185.932C308.276 185.772 308.468 185.536 308.604 185.224C308.74 184.912 308.808 184.528 308.808 184.072C308.808 183.384 308.656 182.864 308.352 182.512C308.056 182.16 307.656 181.984 307.152 181.984C306.824 181.984 306.532 182.064 306.276 182.224C306.028 182.376 305.836 182.608 305.7 182.92C305.564 183.232 305.496 183.616 305.496 184.072C305.496 184.752 305.648 185.272 305.952 185.632C306.256 185.992 306.656 186.172 307.152 186.172ZM327.271 187.084C327.111 187.084 326.983 187.048 326.887 186.976C326.791 186.904 326.735 186.808 326.719 186.688C326.703 186.568 326.727 186.432 326.791 186.28L330.043 178.984C330.123 178.792 330.223 178.656 330.343 178.576C330.471 178.496 330.611 178.456 330.763 178.456C330.907 178.456 331.039 178.496 331.159 178.576C331.287 178.656 331.391 178.792 331.471 178.984L334.723 186.28C334.795 186.432 334.823 186.572 334.807 186.7C334.791 186.82 334.739 186.916 334.651 186.988C334.563 187.052 334.439 187.084 334.279 187.084C334.103 187.084 333.963 187.04 333.859 186.952C333.755 186.864 333.663 186.728 333.583 186.544L332.743 184.6L333.307 184.936H328.195L328.747 184.6L327.919 186.544C327.839 186.736 327.751 186.876 327.655 186.964C327.559 187.044 327.431 187.084 327.271 187.084ZM330.739 179.92L328.927 184.216L328.627 183.928H332.863L332.587 184.216L330.763 179.92H330.739ZM338.255 187.084C338.063 187.084 337.911 187.032 337.799 186.928C337.695 186.816 337.643 186.664 337.643 186.472V181.828C337.643 181.612 337.699 181.444 337.811 181.324C337.931 181.204 338.103 181.144 338.327 181.144H342.263C342.479 181.144 342.647 181.204 342.767 181.324C342.887 181.444 342.947 181.612 342.947 181.828V186.472C342.947 186.664 342.891 186.816 342.779 186.928C342.675 187.032 342.527 187.084 342.335 187.084C342.135 187.084 341.983 187.032 341.879 186.928C341.783 186.816 341.735 186.664 341.735 186.472V182.116H338.855V186.472C338.855 186.664 338.803 186.816 338.699 186.928C338.603 187.032 338.455 187.084 338.255 187.084ZM346.929 189.244C346.737 189.244 346.589 189.192 346.485 189.088C346.381 188.984 346.329 188.832 346.329 188.632V181.672C346.329 181.472 346.381 181.32 346.485 181.216C346.589 181.112 346.733 181.06 346.917 181.06C347.109 181.06 347.257 181.112 347.361 181.216C347.465 181.32 347.517 181.472 347.517 181.672V182.716L347.385 182.464C347.513 182.032 347.765 181.688 348.141 181.432C348.517 181.168 348.961 181.036 349.473 181.036C349.993 181.036 350.445 181.16 350.829 181.408C351.221 181.656 351.521 182.004 351.729 182.452C351.945 182.9 352.053 183.44 352.053 184.072C352.053 184.688 351.945 185.228 351.729 185.692C351.521 186.148 351.225 186.5 350.841 186.748C350.457 186.988 350.001 187.108 349.473 187.108C348.969 187.108 348.529 186.98 348.153 186.724C347.777 186.468 347.525 186.128 347.397 185.704H347.541V188.632C347.541 188.832 347.485 188.984 347.373 189.088C347.269 189.192 347.121 189.244 346.929 189.244ZM349.173 186.172C349.509 186.172 349.801 186.092 350.049 185.932C350.297 185.772 350.489 185.536 350.625 185.224C350.761 184.912 350.829 184.528 350.829 184.072C350.829 183.384 350.677 182.864 350.373 182.512C350.077 182.16 349.677 181.984 349.173 181.984C348.845 181.984 348.553 182.064 348.297 182.224C348.049 182.376 347.857 182.608 347.721 182.92C347.585 183.232 347.517 183.616 347.517 184.072C347.517 184.752 347.669 185.272 347.973 185.632C348.277 185.992 348.677 186.172 349.173 186.172ZM365.215 187.084C365.031 187.084 364.887 187.032 364.783 186.928C364.687 186.824 364.639 186.68 364.639 186.496V179.044C364.639 178.852 364.691 178.708 364.795 178.612C364.899 178.508 365.039 178.456 365.215 178.456C365.383 178.456 365.511 178.488 365.599 178.552C365.695 178.608 365.783 178.712 365.863 178.864L369.007 184.732H368.635L371.767 178.864C371.847 178.712 371.931 178.608 372.019 178.552C372.107 178.488 372.235 178.456 372.403 178.456C372.579 178.456 372.715 178.508 372.811 178.612C372.907 178.708 372.955 178.852 372.955 179.044V186.496C372.955 186.68 372.907 186.824 372.811 186.928C372.723 187.032 372.587 187.084 372.403 187.084C372.219 187.084 372.079 187.032 371.983 186.928C371.887 186.824 371.839 186.68 371.839 186.496V180.304H372.103L369.319 185.452C369.255 185.572 369.187 185.66 369.115 185.716C369.043 185.772 368.943 185.8 368.815 185.8C368.687 185.8 368.583 185.772 368.503 185.716C368.423 185.652 368.351 185.564 368.287 185.452L365.479 180.292H365.767V186.496C365.767 186.68 365.719 186.824 365.623 186.928C365.535 187.032 365.399 187.084 365.215 187.084ZM378.323 187.108C377.915 187.108 377.547 187.028 377.219 186.868C376.899 186.708 376.647 186.492 376.463 186.22C376.279 185.948 376.187 185.64 376.187 185.296C376.187 184.864 376.295 184.524 376.511 184.276C376.735 184.02 377.099 183.84 377.603 183.736C378.115 183.624 378.803 183.568 379.667 183.568H380.231V184.312H379.679C379.103 184.312 378.647 184.34 378.311 184.396C377.975 184.452 377.735 184.548 377.591 184.684C377.455 184.812 377.387 184.992 377.387 185.224C377.387 185.528 377.491 185.776 377.699 185.968C377.907 186.152 378.195 186.244 378.563 186.244C378.859 186.244 379.119 186.176 379.343 186.04C379.567 185.896 379.743 185.704 379.871 185.464C380.007 185.224 380.075 184.948 380.075 184.636V183.256C380.075 182.8 379.979 182.472 379.787 182.272C379.595 182.072 379.279 181.972 378.839 181.972C378.583 181.972 378.315 182.004 378.035 182.068C377.763 182.132 377.479 182.24 377.183 182.392C377.047 182.456 376.931 182.476 376.835 182.452C376.739 182.428 376.663 182.376 376.607 182.296C376.551 182.208 376.519 182.116 376.511 182.02C376.511 181.916 376.535 181.816 376.583 181.72C376.639 181.624 376.731 181.552 376.859 181.504C377.211 181.336 377.559 181.216 377.903 181.144C378.247 181.072 378.571 181.036 378.875 181.036C379.411 181.036 379.851 181.12 380.195 181.288C380.547 181.456 380.807 181.712 380.975 182.056C381.143 182.4 381.227 182.844 381.227 183.388V186.472C381.227 186.664 381.179 186.816 381.083 186.928C380.987 187.032 380.847 187.084 380.663 187.084C380.487 187.084 380.347 187.032 380.243 186.928C380.139 186.816 380.087 186.664 380.087 186.472V185.692H380.195C380.131 185.988 380.011 186.244 379.835 186.46C379.667 186.668 379.455 186.828 379.199 186.94C378.943 187.052 378.651 187.108 378.323 187.108ZM385.149 187.084C385.029 187.084 384.925 187.06 384.837 187.012C384.757 186.972 384.693 186.904 384.645 186.808C384.605 186.712 384.585 186.588 384.585 186.436V181.648C384.585 181.456 384.633 181.312 384.729 181.216C384.825 181.112 384.961 181.06 385.137 181.06C385.313 181.06 385.449 181.112 385.545 181.216C385.641 181.312 385.689 181.456 385.689 181.648V185.8H385.377L388.629 181.456C388.709 181.352 388.801 181.26 388.905 181.18C389.009 181.1 389.149 181.06 389.325 181.06C389.445 181.06 389.545 181.084 389.625 181.132C389.705 181.172 389.765 181.24 389.805 181.336C389.853 181.432 389.877 181.556 389.877 181.708V186.496C389.877 186.68 389.829 186.824 389.733 186.928C389.645 187.032 389.513 187.084 389.337 187.084C389.153 187.084 389.013 187.032 388.917 186.928C388.821 186.824 388.773 186.68 388.773 186.496V182.344H389.097L385.833 186.7C385.761 186.796 385.673 186.884 385.569 186.964C385.473 187.044 385.333 187.084 385.149 187.084ZM387.237 180.4C386.781 180.4 386.369 180.292 386.001 180.076C385.641 179.852 385.381 179.524 385.221 179.092C385.173 178.956 385.165 178.848 385.197 178.768C385.237 178.68 385.309 178.616 385.413 178.576C385.517 178.544 385.609 178.548 385.689 178.588C385.769 178.628 385.841 178.712 385.905 178.84C386.041 179.12 386.217 179.332 386.433 179.476C386.657 179.62 386.925 179.692 387.237 179.692C387.549 179.692 387.813 179.62 388.029 179.476C388.253 179.332 388.433 179.12 388.569 178.84C388.633 178.712 388.705 178.628 388.785 178.588C388.865 178.548 388.957 178.544 389.061 178.576C389.165 178.616 389.233 178.68 389.265 178.768C389.305 178.848 389.297 178.956 389.241 179.092C389.049 179.524 388.781 179.852 388.437 180.076C388.093 180.292 387.693 180.4 387.237 180.4ZM403.307 187.084C403.227 187.084 403.151 187.072 403.079 187.048C403.015 187.024 402.959 186.984 402.911 186.928C402.871 186.872 402.839 186.808 402.815 186.736C402.791 186.656 402.779 186.564 402.779 186.46V179.044C402.779 178.86 402.831 178.716 402.935 178.612C403.039 178.508 403.183 178.456 403.367 178.456C403.551 178.456 403.691 178.508 403.787 178.612C403.883 178.716 403.931 178.86 403.931 179.044V185.332H403.667L408.575 178.816C408.679 178.68 408.775 178.588 408.863 178.54C408.959 178.484 409.079 178.456 409.223 178.456C409.327 178.456 409.415 178.48 409.487 178.528C409.559 178.568 409.615 178.632 409.655 178.72C409.703 178.808 409.727 178.912 409.727 179.032V186.484C409.727 186.676 409.679 186.824 409.583 186.928C409.487 187.032 409.343 187.084 409.151 187.084C408.967 187.084 408.823 187.032 408.719 186.928C408.623 186.824 408.575 186.676 408.575 186.484V180.208H408.839L403.931 186.712C403.827 186.848 403.735 186.944 403.655 187C403.575 187.056 403.459 187.084 403.307 187.084ZM418.297 187.108C417.761 187.108 417.289 187.004 416.881 186.796C416.473 186.58 416.145 186.276 415.897 185.884C415.657 185.484 415.509 185.012 415.453 184.468H414.373V186.472C414.373 186.664 414.325 186.816 414.229 186.928C414.133 187.032 413.985 187.084 413.785 187.084C413.593 187.084 413.445 187.032 413.341 186.928C413.237 186.816 413.185 186.664 413.185 186.472V181.672C413.185 181.472 413.237 181.32 413.341 181.216C413.445 181.112 413.593 181.06 413.785 181.06C413.977 181.06 414.121 181.112 414.217 181.216C414.321 181.32 414.373 181.472 414.373 181.672V183.508H415.465C415.545 182.988 415.709 182.544 415.957 182.176C416.205 181.808 416.525 181.528 416.917 181.336C417.317 181.136 417.777 181.036 418.297 181.036C418.881 181.036 419.389 181.16 419.821 181.408C420.253 181.656 420.585 182.008 420.817 182.464C421.057 182.912 421.177 183.448 421.177 184.072C421.177 184.536 421.109 184.956 420.973 185.332C420.845 185.708 420.653 186.028 420.397 186.292C420.141 186.556 419.837 186.76 419.485 186.904C419.133 187.04 418.737 187.108 418.297 187.108ZM418.297 186.172C418.633 186.172 418.925 186.092 419.173 185.932C419.421 185.772 419.613 185.536 419.749 185.224C419.885 184.912 419.953 184.528 419.953 184.072C419.953 183.384 419.801 182.864 419.497 182.512C419.201 182.16 418.801 181.984 418.297 181.984C417.961 181.984 417.669 182.064 417.421 182.224C417.173 182.376 416.981 182.608 416.845 182.92C416.709 183.232 416.641 183.616 416.641 184.072C416.641 184.752 416.793 185.272 417.097 185.632C417.401 185.992 417.801 186.172 418.297 186.172ZM424.837 187.084C424.645 187.084 424.493 187.032 424.381 186.928C424.277 186.816 424.225 186.664 424.225 186.472V181.672C424.225 181.464 424.277 181.312 424.381 181.216C424.493 181.112 424.645 181.06 424.837 181.06C425.029 181.06 425.177 181.112 425.281 181.216C425.385 181.312 425.437 181.464 425.437 181.672V183.508H428.353V181.672C428.353 181.464 428.401 181.312 428.497 181.216C428.601 181.112 428.753 181.06 428.953 181.06C429.145 181.06 429.293 181.112 429.397 181.216C429.509 181.312 429.565 181.464 429.565 181.672V186.472C429.565 186.664 429.509 186.816 429.397 186.928C429.293 187.032 429.145 187.084 428.953 187.084C428.753 187.084 428.601 187.032 428.497 186.928C428.401 186.816 428.353 186.664 428.353 186.472V184.468H425.437V186.472C425.437 186.664 425.385 186.816 425.281 186.928C425.185 187.032 425.037 187.084 424.837 187.084ZM433.546 187C433.346 187 433.194 186.948 433.09 186.844C432.986 186.732 432.934 186.58 432.934 186.388V181.672C432.934 181.464 432.986 181.312 433.09 181.216C433.202 181.112 433.354 181.06 433.546 181.06C433.738 181.06 433.886 181.112 433.99 181.216C434.094 181.312 434.146 181.464 434.146 181.672V183.172H435.814C436.566 183.172 437.138 183.336 437.53 183.664C437.922 183.984 438.118 184.452 438.118 185.068C438.118 185.46 438.026 185.804 437.842 186.1C437.658 186.388 437.394 186.612 437.05 186.772C436.706 186.924 436.294 187 435.814 187H433.546ZM434.146 186.172H435.658C436.074 186.172 436.398 186.084 436.63 185.908C436.862 185.724 436.978 185.444 436.978 185.068C436.978 184.7 436.862 184.432 436.63 184.264C436.398 184.088 436.074 184 435.658 184H434.146V186.172Z" fill="black"/>
<path d="M36 143C79.3096 109.542 91.7234 102.156 105.605 105.58C111.554 107.047 152.107 135.744 161.526 120.254C168.665 108.515 187.164 33.9514 203.765 52.0178C213.879 63.0237 219.233 168.681 241.84 82.8343C241.84 82.8343 250.168 51.6111 265.041 28.1318C279.914 4.65254 306.09 75.0904 316.204 69.2206C326.317 63.3508 331.909 31.3266 340 19" stroke="#3FA7E2" stroke-width="2"/>
<path d="M26 100.052C81.4455 125.122 108.293 98.5769 118.215 108.408C128.136 118.24 175.411 137.902 207.511 126.596C239.611 115.29 236.693 100.052 248.365 97.5938C267.733 93.5158 284.551 111.358 302.644 123.155C317.118 132.593 338.44 107.261 347 97.5938" stroke="#788497" stroke-opacity="0.54"/>
<circle cx="198" cy="50" r="5" fill="black"/>
<path d="M1.548 12C1.372 12 1.24 11.96 1.152 11.88C1.072 11.792 1.032 11.676 1.032 11.532C1.032 11.444 1.052 11.36 1.092 11.28C1.14 11.192 1.204 11.104 1.284 11.016L3.972 8.136C4.38 7.696 4.672 7.292 4.848 6.924C5.032 6.548 5.124 6.168 5.124 5.784C5.124 5.304 4.976 4.94 4.68 4.692C4.392 4.436 3.968 4.308 3.408 4.308C3.048 4.308 2.708 4.364 2.388 4.476C2.068 4.588 1.76 4.76 1.464 4.992C1.36 5.072 1.264 5.108 1.176 5.1C1.096 5.092 1.024 5.06 0.96 5.004C0.896 4.948 0.852 4.876 0.828 4.788C0.804 4.7 0.804 4.612 0.828 4.524C0.86 4.436 0.924 4.356 1.02 4.284C1.332 4.028 1.708 3.824 2.148 3.672C2.588 3.512 3.036 3.432 3.492 3.432C4.06 3.432 4.54 3.52 4.932 3.696C5.324 3.872 5.62 4.132 5.82 4.476C6.02 4.812 6.12 5.224 6.12 5.712C6.12 6.048 6.064 6.38 5.952 6.708C5.848 7.028 5.684 7.356 5.46 7.692C5.244 8.028 4.96 8.376 4.608 8.736L2.052 11.436V11.16H6.096C6.248 11.16 6.36 11.196 6.432 11.268C6.512 11.332 6.552 11.432 6.552 11.568C6.552 11.712 6.512 11.82 6.432 11.892C6.36 11.964 6.248 12 6.096 12H1.548ZM11.0833 12.108C10.4193 12.108 9.85131 11.948 9.37931 11.628C8.91531 11.3 8.56331 10.828 8.32331 10.212C8.08331 9.596 7.96331 8.852 7.96331 7.98C7.96331 7.244 8.03931 6.596 8.19131 6.036C8.34331 5.476 8.56731 5.004 8.86331 4.62C9.15931 4.228 9.51931 3.932 9.94331 3.732C10.3673 3.532 10.8473 3.432 11.3833 3.432C11.7513 3.432 12.1273 3.504 12.5113 3.648C12.9033 3.792 13.2473 3.996 13.5433 4.26C13.6313 4.324 13.6833 4.404 13.6993 4.5C13.7233 4.588 13.7233 4.676 13.6993 4.764C13.6753 4.844 13.6313 4.912 13.5673 4.968C13.5113 5.024 13.4393 5.056 13.3513 5.064C13.2633 5.064 13.1713 5.028 13.0753 4.956C12.8033 4.724 12.5233 4.56 12.2353 4.464C11.9473 4.36 11.6553 4.308 11.3593 4.308C10.8393 4.308 10.3953 4.436 10.0273 4.692C9.66731 4.948 9.39131 5.336 9.19931 5.856C9.01531 6.368 8.92331 7.012 8.92331 7.788V8.904H8.81531C8.86331 8.448 8.99531 8.056 9.21131 7.728C9.43531 7.392 9.71931 7.136 10.0633 6.96C10.4073 6.784 10.7953 6.696 11.2273 6.696C11.7233 6.696 12.1633 6.808 12.5473 7.032C12.9313 7.256 13.2313 7.572 13.4473 7.98C13.6633 8.38 13.7713 8.84 13.7713 9.36C13.7713 9.888 13.6593 10.36 13.4353 10.776C13.2113 11.192 12.8953 11.52 12.4873 11.76C12.0793 11.992 11.6113 12.108 11.0833 12.108ZM11.0233 11.268C11.3753 11.268 11.6873 11.192 11.9593 11.04C12.2313 10.88 12.4433 10.66 12.5953 10.38C12.7473 10.092 12.8233 9.764 12.8233 9.396C12.8233 9.028 12.7473 8.704 12.5953 8.424C12.4433 8.144 12.2313 7.924 11.9593 7.764C11.6873 7.604 11.3753 7.524 11.0233 7.524C10.6713 7.524 10.3593 7.604 10.0873 7.764C9.81531 7.924 9.60331 8.144 9.45131 8.424C9.29931 8.704 9.22331 9.028 9.22331 9.396C9.22331 9.764 9.29931 10.092 9.45131 10.38C9.60331 10.66 9.81531 10.88 10.0873 11.04C10.3593 11.192 10.6713 11.268 11.0233 11.268ZM1.548 38C1.372 38 1.24 37.96 1.152 37.88C1.072 37.792 1.032 37.676 1.032 37.532C1.032 37.444 1.052 37.36 1.092 37.28C1.14 37.192 1.204 37.104 1.284 37.016L3.972 34.136C4.38 33.696 4.672 33.292 4.848 32.924C5.032 32.548 5.124 32.168 5.124 31.784C5.124 31.304 4.976 30.94 4.68 30.692C4.392 30.436 3.968 30.308 3.408 30.308C3.048 30.308 2.708 30.364 2.388 30.476C2.068 30.588 1.76 30.76 1.464 30.992C1.36 31.072 1.264 31.108 1.176 31.1C1.096 31.092 1.024 31.06 0.96 31.004C0.896 30.948 0.852 30.876 0.828 30.788C0.804 30.7 0.804 30.612 0.828 30.524C0.86 30.436 0.924 30.356 1.02 30.284C1.332 30.028 1.708 29.824 2.148 29.672C2.588 29.512 3.036 29.432 3.492 29.432C4.06 29.432 4.54 29.52 4.932 29.696C5.324 29.872 5.62 30.132 5.82 30.476C6.02 30.812 6.12 31.224 6.12 31.712C6.12 32.048 6.064 32.38 5.952 32.708C5.848 33.028 5.684 33.356 5.46 33.692C5.244 34.028 4.96 34.376 4.608 34.736L2.052 37.436V37.16H6.096C6.248 37.16 6.36 37.196 6.432 37.268C6.512 37.332 6.552 37.432 6.552 37.568C6.552 37.712 6.512 37.82 6.432 37.892C6.36 37.964 6.248 38 6.096 38H1.548ZM12.2113 38.084C12.0593 38.084 11.9393 38.04 11.8513 37.952C11.7633 37.864 11.7193 37.74 11.7193 37.58V36.188H8.27531C8.11531 36.188 7.98731 36.152 7.89131 36.08C7.80331 36 7.75931 35.888 7.75931 35.744C7.75931 35.656 7.77931 35.568 7.81931 35.48C7.85931 35.384 7.93131 35.264 8.03531 35.12L11.6953 29.792C11.7673 29.68 11.8473 29.596 11.9353 29.54C12.0233 29.484 12.1273 29.456 12.2473 29.456C12.3753 29.456 12.4833 29.496 12.5713 29.576C12.6673 29.656 12.7153 29.784 12.7153 29.96V35.348H13.5913C13.7433 35.348 13.8593 35.384 13.9393 35.456C14.0193 35.528 14.0593 35.632 14.0593 35.768C14.0593 35.904 14.0193 36.008 13.9393 36.08C13.8593 36.152 13.7433 36.188 13.5913 36.188H12.7153V37.58C12.7153 37.74 12.6713 37.864 12.5833 37.952C12.4953 38.04 12.3713 38.084 12.2113 38.084ZM11.7193 35.348V30.692H12.0073L8.64731 35.612V35.348H11.7193ZM1.548 64C1.372 64 1.24 63.96 1.152 63.88C1.072 63.792 1.032 63.676 1.032 63.532C1.032 63.444 1.052 63.36 1.092 63.28C1.14 63.192 1.204 63.104 1.284 63.016L3.972 60.136C4.38 59.696 4.672 59.292 4.848 58.924C5.032 58.548 5.124 58.168 5.124 57.784C5.124 57.304 4.976 56.94 4.68 56.692C4.392 56.436 3.968 56.308 3.408 56.308C3.048 56.308 2.708 56.364 2.388 56.476C2.068 56.588 1.76 56.76 1.464 56.992C1.36 57.072 1.264 57.108 1.176 57.1C1.096 57.092 1.024 57.06 0.96 57.004C0.896 56.948 0.852 56.876 0.828 56.788C0.804 56.7 0.804 56.612 0.828 56.524C0.86 56.436 0.924 56.356 1.02 56.284C1.332 56.028 1.708 55.824 2.148 55.672C2.588 55.512 3.036 55.432 3.492 55.432C4.06 55.432 4.54 55.52 4.932 55.696C5.324 55.872 5.62 56.132 5.82 56.476C6.02 56.812 6.12 57.224 6.12 57.712C6.12 58.048 6.064 58.38 5.952 58.708C5.848 59.028 5.684 59.356 5.46 59.692C5.244 60.028 4.96 60.376 4.608 60.736L2.052 63.436V63.16H6.096C6.248 63.16 6.36 63.196 6.432 63.268C6.512 63.332 6.552 63.432 6.552 63.568C6.552 63.712 6.512 63.82 6.432 63.892C6.36 63.964 6.248 64 6.096 64H1.548ZM8.74331 64C8.56731 64 8.43531 63.96 8.34731 63.88C8.26731 63.792 8.22731 63.676 8.22731 63.532C8.22731 63.444 8.24731 63.36 8.28731 63.28C8.33531 63.192 8.39931 63.104 8.47931 63.016L11.1673 60.136C11.5753 59.696 11.8673 59.292 12.0433 58.924C12.2273 58.548 12.3193 58.168 12.3193 57.784C12.3193 57.304 12.1713 56.94 11.8753 56.692C11.5873 56.436 11.1633 56.308 10.6033 56.308C10.2433 56.308 9.90331 56.364 9.58331 56.476C9.26331 56.588 8.95531 56.76 8.65931 56.992C8.55531 57.072 8.45931 57.108 8.37131 57.1C8.29131 57.092 8.21931 57.06 8.15531 57.004C8.09131 56.948 8.04731 56.876 8.02331 56.788C7.99931 56.7 7.99931 56.612 8.02331 56.524C8.05531 56.436 8.11931 56.356 8.21531 56.284C8.52731 56.028 8.90331 55.824 9.34331 55.672C9.78331 55.512 10.2313 55.432 10.6873 55.432C11.2553 55.432 11.7353 55.52 12.1273 55.696C12.5193 55.872 12.8153 56.132 13.0153 56.476C13.2153 56.812 13.3153 57.224 13.3153 57.712C13.3153 58.048 13.2593 58.38 13.1473 58.708C13.0433 59.028 12.8793 59.356 12.6553 59.692C12.4393 60.028 12.1553 60.376 11.8033 60.736L9.24731 63.436V63.16H13.2913C13.4433 63.16 13.5553 63.196 13.6273 63.268C13.7073 63.332 13.7473 63.432 13.7473 63.568C13.7473 63.712 13.7073 63.82 13.6273 63.892C13.5553 63.964 13.4433 64 13.2913 64H8.74331ZM1.548 90C1.372 90 1.24 89.96 1.152 89.88C1.072 89.792 1.032 89.676 1.032 89.532C1.032 89.444 1.052 89.36 1.092 89.28C1.14 89.192 1.204 89.104 1.284 89.016L3.972 86.136C4.38 85.696 4.672 85.292 4.848 84.924C5.032 84.548 5.124 84.168 5.124 83.784C5.124 83.304 4.976 82.94 4.68 82.692C4.392 82.436 3.968 82.308 3.408 82.308C3.048 82.308 2.708 82.364 2.388 82.476C2.068 82.588 1.76 82.76 1.464 82.992C1.36 83.072 1.264 83.108 1.176 83.1C1.096 83.092 1.024 83.06 0.96 83.004C0.896 82.948 0.852 82.876 0.828 82.788C0.804 82.7 0.804 82.612 0.828 82.524C0.86 82.436 0.924 82.356 1.02 82.284C1.332 82.028 1.708 81.824 2.148 81.672C2.588 81.512 3.036 81.432 3.492 81.432C4.06 81.432 4.54 81.52 4.932 81.696C5.324 81.872 5.62 82.132 5.82 82.476C6.02 82.812 6.12 83.224 6.12 83.712C6.12 84.048 6.064 84.38 5.952 84.708C5.848 85.028 5.684 85.356 5.46 85.692C5.244 86.028 4.96 86.376 4.608 86.736L2.052 89.436V89.16H6.096C6.248 89.16 6.36 89.196 6.432 89.268C6.512 89.332 6.552 89.432 6.552 89.568C6.552 89.712 6.512 89.82 6.432 89.892C6.36 89.964 6.248 90 6.096 90H1.548ZM10.7953 90.108C9.82731 90.108 9.09131 89.736 8.58731 88.992C8.08331 88.248 7.83131 87.172 7.83131 85.764C7.83131 84.82 7.94331 84.028 8.16731 83.388C8.39131 82.74 8.72331 82.252 9.16331 81.924C9.61131 81.596 10.1553 81.432 10.7953 81.432C11.7713 81.432 12.5073 81.8 13.0033 82.536C13.5073 83.264 13.7593 84.336 13.7593 85.752C13.7593 86.696 13.6473 87.492 13.4233 88.14C13.1993 88.788 12.8673 89.28 12.4273 89.616C11.9873 89.944 11.4433 90.108 10.7953 90.108ZM10.7953 89.256C11.4673 89.256 11.9633 88.972 12.2833 88.404C12.6113 87.828 12.7753 86.944 12.7753 85.752C12.7753 84.552 12.6113 83.676 12.2833 83.124C11.9633 82.564 11.4673 82.284 10.7953 82.284C10.1313 82.284 9.63531 82.564 9.30731 83.124C8.97931 83.684 8.81531 84.56 8.81531 85.752C8.81531 86.944 8.97931 87.828 9.30731 88.404C9.63531 88.972 10.1313 89.256 10.7953 89.256ZM1.86 116C1.716 116 1.604 115.964 1.524 115.892C1.444 115.812 1.404 115.704 1.404 115.568C1.404 115.432 1.444 115.332 1.524 115.268C1.604 115.196 1.716 115.16 1.86 115.16H3.42V108.356H3.936L2.196 109.508C2.092 109.564 1.992 109.588 1.896 109.58C1.808 109.572 1.732 109.54 1.668 109.484C1.612 109.42 1.572 109.348 1.548 109.268C1.524 109.18 1.528 109.092 1.56 109.004C1.592 108.908 1.66 108.828 1.764 108.764L3.42 107.672C3.524 107.608 3.624 107.556 3.72 107.516C3.816 107.476 3.912 107.456 4.008 107.456C4.12 107.456 4.212 107.492 4.284 107.564C4.364 107.628 4.404 107.732 4.404 107.876V115.16H5.844C5.988 115.16 6.1 115.196 6.18 115.268C6.26 115.332 6.3 115.432 6.3 115.568C6.3 115.712 6.26 115.82 6.18 115.892C6.1 115.964 5.988 116 5.844 116H1.86ZM10.7953 116.108C10.1633 116.108 9.61931 116.016 9.16331 115.832C8.71531 115.648 8.37131 115.38 8.13131 115.028C7.89931 114.676 7.78331 114.252 7.78331 113.756C7.78331 113.364 7.86331 113.016 8.02331 112.712C8.18331 112.4 8.40731 112.148 8.69531 111.956C8.98331 111.764 9.31531 111.644 9.69131 111.596V111.776C9.17131 111.664 8.75531 111.42 8.44331 111.044C8.13931 110.66 7.98731 110.208 7.98731 109.688C7.98731 109.208 8.09931 108.804 8.32331 108.476C8.55531 108.14 8.88331 107.884 9.30731 107.708C9.73131 107.524 10.2273 107.432 10.7953 107.432C11.3713 107.432 11.8673 107.524 12.2833 107.708C12.7073 107.884 13.0353 108.14 13.2673 108.476C13.4993 108.804 13.6153 109.208 13.6153 109.688C13.6153 110.032 13.5433 110.352 13.3993 110.648C13.2633 110.936 13.0673 111.176 12.8113 111.368C12.5553 111.56 12.2553 111.692 11.9113 111.764V111.596C12.4793 111.676 12.9353 111.912 13.2793 112.304C13.6313 112.688 13.8073 113.172 13.8073 113.756C13.8073 114.252 13.6873 114.676 13.4473 115.028C13.2153 115.38 12.8713 115.648 12.4153 115.832C11.9673 116.016 11.4273 116.108 10.7953 116.108ZM10.7953 115.292C11.4753 115.292 11.9873 115.16 12.3313 114.896C12.6833 114.632 12.8593 114.232 12.8593 113.696C12.8593 113.168 12.6833 112.776 12.3313 112.52C11.9873 112.256 11.4753 112.124 10.7953 112.124C10.1233 112.124 9.61131 112.256 9.25931 112.52C8.90731 112.776 8.73131 113.168 8.73131 113.696C8.73131 114.232 8.90731 114.632 9.25931 114.896C9.61131 115.16 10.1233 115.292 10.7953 115.292ZM10.7953 111.308C11.1873 111.308 11.5193 111.248 11.7913 111.128C12.0713 111 12.2873 110.82 12.4393 110.588C12.5913 110.356 12.6673 110.084 12.6673 109.772C12.6673 109.292 12.4993 108.92 12.1633 108.656C11.8353 108.384 11.3793 108.248 10.7953 108.248C10.2113 108.248 9.75531 108.384 9.42731 108.656C9.09931 108.92 8.93531 109.292 8.93531 109.772C8.93531 110.252 9.09931 110.628 9.42731 110.9C9.75531 111.172 10.2113 111.308 10.7953 111.308ZM1.86 142C1.716 142 1.604 141.964 1.524 141.892C1.444 141.812 1.404 141.704 1.404 141.568C1.404 141.432 1.444 141.332 1.524 141.268C1.604 141.196 1.716 141.16 1.86 141.16H3.42V134.356H3.936L2.196 135.508C2.092 135.564 1.992 135.588 1.896 135.58C1.808 135.572 1.732 135.54 1.668 135.484C1.612 135.42 1.572 135.348 1.548 135.268C1.524 135.18 1.528 135.092 1.56 135.004C1.592 134.908 1.66 134.828 1.764 134.764L3.42 133.672C3.524 133.608 3.624 133.556 3.72 133.516C3.816 133.476 3.912 133.456 4.008 133.456C4.12 133.456 4.212 133.492 4.284 133.564C4.364 133.628 4.404 133.732 4.404 133.876V141.16H5.844C5.988 141.16 6.1 141.196 6.18 141.268C6.26 141.332 6.3 141.432 6.3 141.568C6.3 141.712 6.26 141.82 6.18 141.892C6.1 141.964 5.988 142 5.844 142H1.86ZM11.0833 142.108C10.4193 142.108 9.85131 141.948 9.37931 141.628C8.91531 141.3 8.56331 140.828 8.32331 140.212C8.08331 139.596 7.96331 138.852 7.96331 137.98C7.96331 137.244 8.03931 136.596 8.19131 136.036C8.34331 135.476 8.56731 135.004 8.86331 134.62C9.15931 134.228 9.51931 133.932 9.94331 133.732C10.3673 133.532 10.8473 133.432 11.3833 133.432C11.7513 133.432 12.1273 133.504 12.5113 133.648C12.9033 133.792 13.2473 133.996 13.5433 134.26C13.6313 134.324 13.6833 134.404 13.6993 134.5C13.7233 134.588 13.7233 134.676 13.6993 134.764C13.6753 134.844 13.6313 134.912 13.5673 134.968C13.5113 135.024 13.4393 135.056 13.3513 135.064C13.2633 135.064 13.1713 135.028 13.0753 134.956C12.8033 134.724 12.5233 134.56 12.2353 134.464C11.9473 134.36 11.6553 134.308 11.3593 134.308C10.8393 134.308 10.3953 134.436 10.0273 134.692C9.66731 134.948 9.39131 135.336 9.19931 135.856C9.01531 136.368 8.92331 137.012 8.92331 137.788V138.904H8.81531C8.86331 138.448 8.99531 138.056 9.21131 137.728C9.43531 137.392 9.71931 137.136 10.0633 136.96C10.4073 136.784 10.7953 136.696 11.2273 136.696C11.7233 136.696 12.1633 136.808 12.5473 137.032C12.9313 137.256 13.2313 137.572 13.4473 137.98C13.6633 138.38 13.7713 138.84 13.7713 139.36C13.7713 139.888 13.6593 140.36 13.4353 140.776C13.2113 141.192 12.8953 141.52 12.4873 141.76C12.0793 141.992 11.6113 142.108 11.0833 142.108ZM11.0233 141.268C11.3753 141.268 11.6873 141.192 11.9593 141.04C12.2313 140.88 12.4433 140.66 12.5953 140.38C12.7473 140.092 12.8233 139.764 12.8233 139.396C12.8233 139.028 12.7473 138.704 12.5953 138.424C12.4433 138.144 12.2313 137.924 11.9593 137.764C11.6873 137.604 11.3753 137.524 11.0233 137.524C10.6713 137.524 10.3593 137.604 10.0873 137.764C9.81531 137.924 9.60331 138.144 9.45131 138.424C9.29931 138.704 9.22331 139.028 9.22331 139.396C9.22331 139.764 9.29931 140.092 9.45131 140.38C9.60331 140.66 9.81531 140.88 10.0873 141.04C10.3593 141.192 10.6713 141.268 11.0233 141.268ZM1.86 168C1.716 168 1.604 167.964 1.524 167.892C1.444 167.812 1.404 167.704 1.404 167.568C1.404 167.432 1.444 167.332 1.524 167.268C1.604 167.196 1.716 167.16 1.86 167.16H3.42V160.356H3.936L2.196 161.508C2.092 161.564 1.992 161.588 1.896 161.58C1.808 161.572 1.732 161.54 1.668 161.484C1.612 161.42 1.572 161.348 1.548 161.268C1.524 161.18 1.528 161.092 1.56 161.004C1.592 160.908 1.66 160.828 1.764 160.764L3.42 159.672C3.524 159.608 3.624 159.556 3.72 159.516C3.816 159.476 3.912 159.456 4.008 159.456C4.12 159.456 4.212 159.492 4.284 159.564C4.364 159.628 4.404 159.732 4.404 159.876V167.16H5.844C5.988 167.16 6.1 167.196 6.18 167.268C6.26 167.332 6.3 167.432 6.3 167.568C6.3 167.712 6.26 167.82 6.18 167.892C6.1 167.964 5.988 168 5.844 168H1.86ZM12.2113 168.084C12.0593 168.084 11.9393 168.04 11.8513 167.952C11.7633 167.864 11.7193 167.74 11.7193 167.58V166.188H8.27531C8.11531 166.188 7.98731 166.152 7.89131 166.08C7.80331 166 7.75931 165.888 7.75931 165.744C7.75931 165.656 7.77931 165.568 7.81931 165.48C7.85931 165.384 7.93131 165.264 8.03531 165.12L11.6953 159.792C11.7673 159.68 11.8473 159.596 11.9353 159.54C12.0233 159.484 12.1273 159.456 12.2473 159.456C12.3753 159.456 12.4833 159.496 12.5713 159.576C12.6673 159.656 12.7153 159.784 12.7153 159.96V165.348H13.5913C13.7433 165.348 13.8593 165.384 13.9393 165.456C14.0193 165.528 14.0593 165.632 14.0593 165.768C14.0593 165.904 14.0193 166.008 13.9393 166.08C13.8593 166.152 13.7433 166.188 13.5913 166.188H12.7153V167.58C12.7153 167.74 12.6713 167.864 12.5833 167.952C12.4953 168.04 12.3713 168.084 12.2113 168.084ZM11.7193 165.348V160.692H12.0073L8.64731 165.612V165.348H11.7193Z" fill="black"/>
<rect width="426" height="175" transform="translate(22)" fill="#B5F2E7" fill-opacity="0.16"/>
</svg>
