<svg width="327" height="116" viewBox="0 0 327 116" fill="none" xmlns="http://www.w3.org/2000/svg">
<g filter="url(#filter0_d_224_733)">
<rect x="4" width="319" height="108" rx="25" fill="#F7FFFD"/>
<line x1="175" y1="48.5" x2="244.556" y2="48.5" stroke="black"/>
<line x1="26" y1="48.5" x2="72.7169" y2="48.5" stroke="black"/>
<path d="M31.904 43.192C31.376 43.192 30.952 43.048 30.632 42.76C30.312 42.472 30.144 42.104 30.128 41.656C30.128 41.208 30.312 40.752 30.68 40.288L34.232 35.968V37.864L30.968 33.88C30.6 33.4 30.416 32.944 30.416 32.512C30.432 32.064 30.6 31.696 30.92 31.408C31.24 31.12 31.664 30.976 32.192 30.976C32.704 30.976 33.12 31.064 33.44 31.24C33.776 31.4 34.096 31.672 34.4 32.056L36.632 34.936H35.144L37.376 32.056C37.68 31.672 38 31.4 38.336 31.24C38.672 31.064 39.088 30.976 39.584 30.976C40.128 30.976 40.552 31.12 40.856 31.408C41.176 31.696 41.336 32.064 41.336 32.512C41.352 32.96 41.168 33.416 40.784 33.88L37.52 37.864V35.968L41.096 40.288C41.48 40.736 41.664 41.184 41.648 41.632C41.632 42.08 41.464 42.456 41.144 42.76C40.824 43.048 40.392 43.192 39.848 43.192C39.352 43.192 38.936 43.112 38.6 42.952C38.264 42.776 37.944 42.496 37.64 42.112L35.144 38.92H36.608L34.088 42.112C33.8 42.48 33.488 42.752 33.152 42.928C32.832 43.104 32.416 43.192 31.904 43.192ZM49.9344 42.256C49.4544 42.256 49.0864 42.128 48.8304 41.872C48.5744 41.6 48.4464 41.224 48.4464 40.744V37.528H45.3024C44.8384 37.528 44.4784 37.408 44.2224 37.168C43.9824 36.928 43.8624 36.576 43.8624 36.112C43.8624 35.648 43.9824 35.296 44.2224 35.056C44.4784 34.816 44.8384 34.696 45.3024 34.696H48.4464V31.6C48.4464 31.12 48.5744 30.752 48.8304 30.496C49.0864 30.24 49.4624 30.112 49.9584 30.112C50.4384 30.112 50.7984 30.24 51.0384 30.496C51.2944 30.752 51.4224 31.12 51.4224 31.6V34.696H54.5664C55.0304 34.696 55.3824 34.816 55.6224 35.056C55.8784 35.296 56.0064 35.648 56.0064 36.112C56.0064 36.576 55.8784 36.928 55.6224 37.168C55.3824 37.408 55.0304 37.528 54.5664 37.528H51.4224V40.744C51.4224 41.224 51.2944 41.6 51.0384 41.872C50.7984 42.128 50.4304 42.256 49.9344 42.256ZM61.805 47.536C61.309 47.536 60.909 47.408 60.605 47.152C60.301 46.896 60.109 46.56 60.029 46.144C59.965 45.728 60.037 45.288 60.245 44.824L61.853 41.344V43.072L57.749 33.688C57.541 33.208 57.469 32.76 57.533 32.344C57.613 31.928 57.829 31.6 58.181 31.36C58.533 31.104 59.013 30.976 59.621 30.976C60.133 30.976 60.541 31.096 60.845 31.336C61.165 31.56 61.453 32.008 61.709 32.68L64.109 38.92H63.293L65.837 32.656C66.093 32 66.381 31.56 66.701 31.336C67.037 31.096 67.485 30.976 68.045 30.976C68.525 30.976 68.909 31.104 69.197 31.36C69.485 31.6 69.661 31.928 69.725 32.344C69.789 32.76 69.717 33.208 69.509 33.688L64.061 45.928C63.773 46.568 63.453 46.992 63.101 47.2C62.765 47.424 62.333 47.536 61.805 47.536Z" fill="black"/>
<path d="M183.544 44C183.112 44 182.76 43.896 182.488 43.688C182.216 43.464 182.032 43.184 181.936 42.848C181.84 42.512 181.84 42.152 181.936 41.768C182.048 41.368 182.256 41 182.56 40.664L188.128 34.376V35.336H183.376C182.864 35.336 182.472 35.2 182.2 34.928C181.928 34.656 181.792 34.264 181.792 33.752C181.792 33.24 181.928 32.856 182.2 32.6C182.472 32.328 182.864 32.192 183.376 32.192H190.168C190.648 32.192 191.04 32.304 191.344 32.528C191.648 32.736 191.848 33.008 191.944 33.344C192.056 33.68 192.064 34.04 191.968 34.424C191.872 34.808 191.672 35.168 191.368 35.504L185.656 41.96V40.856H190.768C191.84 40.856 192.376 41.376 192.376 42.416C192.376 42.928 192.24 43.32 191.968 43.592C191.696 43.864 191.296 44 190.768 44H183.544ZM199.895 43.256C199.415 43.256 199.047 43.128 198.791 42.872C198.535 42.6 198.407 42.224 198.407 41.744V38.528H195.263C194.799 38.528 194.439 38.408 194.183 38.168C193.943 37.928 193.823 37.576 193.823 37.112C193.823 36.648 193.943 36.296 194.183 36.056C194.439 35.816 194.799 35.696 195.263 35.696H198.407V32.6C198.407 32.12 198.535 31.752 198.791 31.496C199.047 31.24 199.423 31.112 199.919 31.112C200.399 31.112 200.759 31.24 200.999 31.496C201.255 31.752 201.383 32.12 201.383 32.6V35.696H204.527C204.991 35.696 205.343 35.816 205.583 36.056C205.839 36.296 205.967 36.648 205.967 37.112C205.967 37.576 205.839 37.928 205.583 38.168C205.343 38.408 204.991 38.528 204.527 38.528H201.383V41.744C201.383 42.224 201.255 42.6 200.999 42.872C200.759 43.128 200.391 43.256 199.895 43.256ZM212.75 44.264C211.726 44.264 210.886 44.08 210.23 43.712C209.574 43.328 209.078 42.76 208.742 42.008C208.422 41.256 208.262 40.304 208.262 39.152V34.112C208.262 33.408 208.446 32.88 208.814 32.528C209.182 32.16 209.71 31.976 210.398 31.976C211.086 31.976 211.614 32.16 211.982 32.528C212.35 32.88 212.534 33.408 212.534 34.112V39.272C212.534 39.848 212.654 40.28 212.894 40.568C213.134 40.856 213.51 41 214.022 41C214.598 41 215.07 40.792 215.438 40.376C215.806 39.96 215.99 39.408 215.99 38.72V34.112C215.99 33.408 216.174 32.88 216.542 32.528C216.91 32.16 217.438 31.976 218.126 31.976C218.814 31.976 219.342 32.16 219.71 32.528C220.078 32.88 220.262 33.408 220.262 34.112V42.056C220.262 43.496 219.574 44.216 218.198 44.216C217.526 44.216 217.006 44.032 216.638 43.664C216.27 43.296 216.086 42.76 216.086 42.056V40.664L216.47 41.84C216.118 42.624 215.622 43.224 214.982 43.64C214.358 44.056 213.614 44.264 212.75 44.264ZM228.7 43.256C228.22 43.256 227.852 43.128 227.596 42.872C227.34 42.6 227.212 42.224 227.212 41.744V38.528H224.068C223.604 38.528 223.244 38.408 222.988 38.168C222.748 37.928 222.628 37.576 222.628 37.112C222.628 36.648 222.748 36.296 222.988 36.056C223.244 35.816 223.604 35.696 224.068 35.696H227.212V32.6C227.212 32.12 227.34 31.752 227.596 31.496C227.852 31.24 228.228 31.112 228.724 31.112C229.204 31.112 229.564 31.24 229.804 31.496C230.06 31.752 230.188 32.12 230.188 32.6V35.696H233.332C233.796 35.696 234.148 35.816 234.388 36.056C234.644 36.296 234.772 36.648 234.772 37.112C234.772 37.576 234.644 37.928 234.388 38.168C234.148 38.408 233.796 38.528 233.332 38.528H230.188V41.744C230.188 42.224 230.06 42.6 229.804 42.872C229.564 43.128 229.196 43.256 228.7 43.256ZM243.331 44.264C242.131 44.264 241.139 44.08 240.355 43.712C239.587 43.344 239.011 42.792 238.627 42.056C238.243 41.304 238.051 40.368 238.051 39.248V35.336H237.235C236.723 35.336 236.323 35.2 236.035 34.928C235.763 34.656 235.627 34.264 235.627 33.752C235.627 33.24 235.763 32.856 236.035 32.6C236.323 32.328 236.723 32.192 237.235 32.192H238.051V30.704C238.051 30 238.235 29.464 238.603 29.096C238.971 28.728 239.499 28.544 240.187 28.544C240.875 28.544 241.403 28.728 241.771 29.096C242.139 29.464 242.323 30 242.323 30.704V32.192H244.291C244.819 32.192 245.219 32.328 245.491 32.6C245.779 32.856 245.923 33.24 245.923 33.752C245.923 34.264 245.779 34.656 245.491 34.928C245.219 35.2 244.819 35.336 244.291 35.336H242.323V39.104C242.323 39.696 242.459 40.136 242.731 40.424C243.019 40.696 243.467 40.832 244.075 40.832C244.299 40.832 244.515 40.808 244.723 40.76C244.931 40.712 245.123 40.688 245.299 40.688C245.555 40.672 245.763 40.752 245.923 40.928C246.083 41.088 246.163 41.464 246.163 42.056C246.163 42.536 246.091 42.944 245.947 43.28C245.803 43.6 245.547 43.832 245.179 43.976C244.955 44.056 244.651 44.12 244.267 44.168C243.883 44.232 243.571 44.264 243.331 44.264Z" fill="black"/>
<path d="M45.9892 73C45.2852 73 44.7732 72.84 44.4532 72.52C44.1492 72.184 43.9972 71.696 43.9972 71.056C43.9972 70.608 44.0932 70.208 44.2852 69.856C44.4932 69.504 44.7572 69.16 45.0772 68.824L49.2772 64.432C49.9012 63.76 50.3412 63.184 50.5972 62.704C50.8692 62.224 51.0052 61.744 51.0052 61.264C51.0052 60.656 50.8052 60.2 50.4052 59.896C50.0052 59.592 49.4292 59.44 48.6772 59.44C48.2932 59.44 47.8852 59.496 47.4532 59.608C47.0212 59.704 46.5572 59.88 46.0612 60.136C45.6292 60.328 45.2372 60.384 44.8852 60.304C44.5492 60.224 44.2612 60.048 44.0212 59.776C43.7972 59.504 43.6532 59.192 43.5892 58.84C43.5412 58.488 43.5972 58.144 43.7572 57.808C43.9172 57.456 44.2052 57.168 44.6212 56.944C45.3572 56.544 46.1172 56.256 46.9012 56.08C47.7012 55.904 48.5012 55.816 49.3012 55.816C50.6132 55.816 51.7092 56.008 52.5892 56.392C53.4852 56.776 54.1652 57.336 54.6292 58.072C55.0932 58.792 55.3252 59.688 55.3252 60.76C55.3252 61.432 55.2212 62.088 55.0132 62.728C54.8212 63.368 54.5012 64.008 54.0532 64.648C53.6212 65.288 53.0372 65.968 52.3012 66.688L48.4132 70.528V69.424H54.3412C54.9332 69.424 55.3812 69.576 55.6852 69.88C56.0052 70.184 56.1652 70.624 56.1652 71.2C56.1652 71.776 56.0052 72.224 55.6852 72.544C55.3812 72.848 54.9332 73 54.3412 73H45.9892Z" fill="black"/>
<path d="M210.696 73.264C209.88 73.264 209.064 73.184 208.248 73.024C207.432 72.864 206.728 72.64 206.136 72.352C205.624 72.112 205.264 71.816 205.056 71.464C204.864 71.112 204.784 70.752 204.816 70.384C204.848 70.016 204.976 69.688 205.2 69.4C205.44 69.112 205.744 68.92 206.112 68.824C206.496 68.712 206.928 68.76 207.408 68.968C208 69.224 208.544 69.4 209.04 69.496C209.536 69.592 210.032 69.64 210.528 69.64C211.104 69.64 211.584 69.576 211.968 69.448C212.352 69.32 212.64 69.128 212.832 68.872C213.024 68.6 213.12 68.264 213.12 67.864C213.12 67.304 212.92 66.896 212.52 66.64C212.136 66.368 211.568 66.232 210.816 66.232H209.52C208.912 66.232 208.448 66.08 208.128 65.776C207.808 65.472 207.648 65.04 207.648 64.48C207.648 63.92 207.808 63.488 208.128 63.184C208.448 62.88 208.912 62.728 209.52 62.728H210.384C210.848 62.728 211.24 62.664 211.56 62.536C211.896 62.408 212.152 62.224 212.328 61.984C212.504 61.728 212.592 61.416 212.592 61.048C212.592 60.52 212.4 60.12 212.016 59.848C211.648 59.576 211.096 59.44 210.36 59.44C209.912 59.44 209.456 59.488 208.992 59.584C208.528 59.68 208.032 59.848 207.504 60.088C207.088 60.264 206.704 60.304 206.352 60.208C206.016 60.112 205.736 59.928 205.512 59.656C205.304 59.368 205.176 59.056 205.128 58.72C205.08 58.368 205.136 58.024 205.296 57.688C205.456 57.352 205.76 57.072 206.208 56.848C206.88 56.512 207.608 56.256 208.392 56.08C209.192 55.904 209.992 55.816 210.792 55.816C212.056 55.816 213.136 56 214.032 56.368C214.928 56.736 215.608 57.272 216.072 57.976C216.552 58.664 216.792 59.496 216.792 60.472C216.792 61.112 216.672 61.704 216.432 62.248C216.192 62.792 215.84 63.248 215.376 63.616C214.912 63.968 214.368 64.224 213.744 64.384V64.048C214.864 64.224 215.736 64.696 216.36 65.464C217 66.216 217.32 67.16 217.32 68.296C217.32 69.32 217.056 70.208 216.528 70.96C216 71.712 215.24 72.288 214.248 72.688C213.256 73.072 212.072 73.264 210.696 73.264Z" fill="black"/>
<path d="M96.568 49.128C96.104 49.128 95.744 49.008 95.488 48.768C95.248 48.528 95.128 48.176 95.128 47.712C95.128 47.248 95.248 46.896 95.488 46.656C95.744 46.416 96.104 46.296 96.568 46.296H105.832C106.296 46.296 106.648 46.416 106.888 46.656C107.144 46.896 107.272 47.248 107.272 47.712C107.272 48.176 107.144 48.528 106.888 48.768C106.648 49.008 106.296 49.128 105.832 49.128H96.568ZM96.568 53.928C96.104 53.928 95.744 53.808 95.488 53.568C95.248 53.312 95.128 52.96 95.128 52.512C95.128 52.048 95.248 51.696 95.488 51.456C95.744 51.216 96.104 51.096 96.568 51.096H105.832C106.296 51.096 106.648 51.216 106.888 51.456C107.144 51.696 107.272 52.048 107.272 52.512C107.272 52.976 107.144 53.328 106.888 53.568C106.648 53.808 106.296 53.928 105.832 53.928H96.568ZM118.135 57.216C117.463 57.216 116.935 57.032 116.551 56.664C116.183 56.296 115.999 55.752 115.999 55.032V54.168H111.175C110.471 54.168 109.919 54.008 109.519 53.688C109.135 53.368 108.943 52.88 108.943 52.224C108.943 51.84 109.015 51.472 109.159 51.12C109.303 50.752 109.559 50.312 109.927 49.8L115.783 41.256C116.103 40.776 116.463 40.424 116.863 40.2C117.263 39.976 117.735 39.864 118.279 39.864C118.887 39.864 119.367 40.048 119.719 40.416C120.071 40.768 120.247 41.312 120.247 42.048V50.832H120.823C121.431 50.832 121.887 50.976 122.191 51.264C122.511 51.552 122.671 51.96 122.671 52.488C122.671 53.032 122.511 53.448 122.191 53.736C121.887 54.024 121.431 54.168 120.823 54.168H120.247V55.032C120.247 55.736 120.063 56.28 119.695 56.664C119.343 57.032 118.823 57.216 118.135 57.216ZM115.999 50.832V45.168H116.671L112.159 51.864V50.832H115.999ZM126.645 59.88C126.389 60.232 126.101 60.424 125.781 60.456C125.477 60.504 125.213 60.44 124.989 60.264C124.765 60.104 124.637 59.872 124.605 59.568C124.589 59.28 124.725 58.96 125.013 58.608C125.413 58.144 125.677 57.68 125.805 57.216C125.933 56.752 125.997 56.336 125.997 55.968L126.141 57.144C125.405 57.144 124.813 56.936 124.365 56.52C123.917 56.088 123.693 55.512 123.693 54.792C123.693 54.104 123.901 53.552 124.317 53.136C124.749 52.704 125.325 52.488 126.045 52.488C126.797 52.488 127.381 52.744 127.797 53.256C128.213 53.752 128.421 54.448 128.421 55.344C128.421 55.792 128.373 56.248 128.277 56.712C128.197 57.176 128.029 57.664 127.773 58.176C127.533 58.704 127.157 59.272 126.645 59.88Z" fill="black"/>
<path d="M266.568 46.128C266.104 46.128 265.744 46.008 265.488 45.768C265.248 45.528 265.128 45.176 265.128 44.712C265.128 44.248 265.248 43.896 265.488 43.656C265.744 43.416 266.104 43.296 266.568 43.296H275.832C276.296 43.296 276.648 43.416 276.888 43.656C277.144 43.896 277.272 44.248 277.272 44.712C277.272 45.176 277.144 45.528 276.888 45.768C276.648 46.008 276.296 46.128 275.832 46.128H266.568ZM266.568 50.928C266.104 50.928 265.744 50.808 265.488 50.568C265.248 50.312 265.128 49.96 265.128 49.512C265.128 49.048 265.248 48.696 265.488 48.456C265.744 48.216 266.104 48.096 266.568 48.096H275.832C276.296 48.096 276.648 48.216 276.888 48.456C277.144 48.696 277.272 49.048 277.272 49.512C277.272 49.976 277.144 50.328 276.888 50.568C276.648 50.808 276.296 50.928 275.832 50.928H266.568ZM286.263 54.264C284.775 54.264 283.511 53.928 282.471 53.256C281.447 52.584 280.663 51.616 280.119 50.352C279.575 49.072 279.303 47.52 279.303 45.696C279.303 44.304 279.479 43.056 279.831 41.952C280.183 40.848 280.695 39.92 281.367 39.168C282.039 38.4 282.855 37.816 283.815 37.416C284.775 37.016 285.863 36.816 287.079 36.816C287.735 36.816 288.399 36.896 289.071 37.056C289.743 37.216 290.383 37.456 290.991 37.776C291.375 37.968 291.639 38.232 291.783 38.568C291.927 38.888 291.975 39.232 291.927 39.6C291.895 39.952 291.775 40.272 291.567 40.56C291.359 40.832 291.079 41.024 290.727 41.136C290.391 41.248 290.007 41.208 289.575 41.016C289.095 40.792 288.647 40.64 288.231 40.56C287.815 40.48 287.415 40.44 287.031 40.44C286.231 40.44 285.567 40.608 285.039 40.944C284.511 41.264 284.111 41.76 283.839 42.432C283.567 43.088 283.431 43.912 283.431 44.904V46.152H283.071C283.215 45.464 283.479 44.88 283.863 44.4C284.247 43.904 284.719 43.528 285.279 43.272C285.855 43.016 286.495 42.888 287.199 42.888C288.143 42.888 288.983 43.128 289.719 43.608C290.455 44.072 291.039 44.72 291.471 45.552C291.903 46.384 292.119 47.328 292.119 48.384C292.119 49.536 291.871 50.552 291.375 51.432C290.879 52.312 290.191 53.008 289.311 53.52C288.431 54.016 287.415 54.264 286.263 54.264ZM286.023 50.904C286.439 50.904 286.799 50.808 287.103 50.616C287.423 50.424 287.663 50.152 287.823 49.8C287.999 49.448 288.087 49.04 288.087 48.576C288.087 48.096 287.999 47.688 287.823 47.352C287.663 47 287.423 46.728 287.103 46.536C286.799 46.328 286.439 46.224 286.023 46.224C285.623 46.224 285.263 46.328 284.943 46.536C284.639 46.728 284.399 47 284.223 47.352C284.047 47.688 283.959 48.096 283.959 48.576C283.959 49.04 284.047 49.448 284.223 49.8C284.399 50.152 284.639 50.424 284.943 50.616C285.263 50.808 285.623 50.904 286.023 50.904Z" fill="black"/>
</g>
<defs>
<filter id="filter0_d_224_733" x="0" y="0" width="327" height="116" filterUnits="userSpaceOnUse" color-interpolation-filters="sRGB">
<feFlood flood-opacity="0" result="BackgroundImageFix"/>
<feColorMatrix in="SourceAlpha" type="matrix" values="0 0 0 0 0 0 0 0 0 0 0 0 0 0 0 0 0 0 127 0" result="hardAlpha"/>
<feOffset dy="4"/>
<feGaussianBlur stdDeviation="2"/>
<feComposite in2="hardAlpha" operator="out"/>
<feColorMatrix type="matrix" values="0 0 0 0 0 0 0 0 0 0 0 0 0 0 0 0 0 0 0.25 0"/>
<feBlend mode="normal" in2="BackgroundImageFix" result="effect1_dropShadow_224_733"/>
<feBlend mode="normal" in="SourceGraphic" in2="effect1_dropShadow_224_733" result="shape"/>
</filter>
</defs>
</svg>
