<svg width="19" height="15" viewBox="0 0 19 15" fill="none" xmlns="http://www.w3.org/2000/svg">
<path d="M9.375 0.952393L9.18756 1.02067L1.70193 4.03071L0 4.70416L0.991097 5.08508V11.374C0.633583 11.6234 0.392247 12.0783 0.392247 12.6102C0.392247 12.9914 0.518433 13.357 0.743045 13.6266C0.967658 13.8962 1.2723 14.0476 1.58995 14.0476C1.9076 14.0476 2.21224 13.8962 2.43685 13.6266C2.66146 13.357 2.78765 12.9914 2.78765 12.6102C2.78765 12.0783 2.54631 11.6234 2.1888 11.374V5.58101L3.3865 6.05177V9.73526C3.3865 10.3246 3.68592 10.8134 4.04164 11.1512C4.39736 11.4868 4.83931 11.724 5.36989 11.9367C6.43225 12.3608 7.83236 12.6102 9.375 12.6102C10.9176 12.6102 12.3177 12.3615 13.3801 11.936C13.9107 11.724 14.3526 11.4868 14.7084 11.1504C15.0641 10.8134 15.3635 10.3246 15.3635 9.73526V6.05177L17.0481 5.37761L18.75 4.70416L17.0475 4.02999L9.56184 1.02067L9.375 0.952393ZM9.375 2.45813L14.9892 4.70416L9.375 6.95018L3.76078 4.70416L9.375 2.45813ZM4.5842 6.54626L9.18816 8.38764L9.375 8.4552L9.56244 8.38692L14.1658 6.54554V9.73526C14.1658 9.74245 14.1682 9.82582 13.9784 10.0048C13.7891 10.1845 13.4496 10.4109 13.0052 10.5891C12.1177 10.9434 10.8092 11.1727 9.375 11.1727C7.94075 11.1727 6.63227 10.9442 5.74417 10.5884C5.30102 10.4109 4.96087 10.1837 4.77164 10.0048C4.5812 9.8251 4.5842 9.74245 4.5842 9.73526V6.54554V6.54626Z" fill="#828282"/>
</svg>
