<svg width="48" height="45" viewBox="0 0 48 45" fill="none" xmlns="http://www.w3.org/2000/svg">
<path d="M0.391057 34.2419C18.3873 32.6531 26.8772 14.9356 26.8772 14.9356L20.5804 18.4506M0.391057 34.2419C6.58185 16.9214 25.5505 13.1702 25.5505 13.1702L20.5853 18.4591M22.2764 44.1362C16.7406 39.9687 16.7844 30.3257 16.7844 30.3257C21.0853 27.4989 24.6213 23.6012 26.9393 19.1323C28.44 27.799 29.4019 36.4062 22.2774 44.1369L22.2764 44.1362ZM47.4967 30.642C45.085 20.9483 39.5578 13.5743 31.7386 7.76694C28.1133 20.3847 32.454 28.5219 47.4967 30.642ZM30.1298 6.81785C16.8351 -1.06932 1.62206 0.994586 1.55317 1.06222C8.15369 12.4675 17.6274 14.5521 30.1298 6.81785Z" fill="#6FCF97"/>
</svg>
