<svg width="48" height="45" viewBox="0 0 48 45" fill="none" xmlns="http://www.w3.org/2000/svg">
<path d="M47.749 11.065C29.7355 12.479 21.0431 30.1132 21.0431 30.1132L27.3798 26.6594M47.749 11.065C41.36 28.3244 22.3494 31.8914 22.3494 31.8914L27.3749 26.6509M25.9783 0.958825C31.4659 5.1798 31.3116 14.8219 31.3116 14.8219C26.9786 17.6067 23.3981 21.4699 21.029 25.9161C19.6277 17.2353 18.7645 8.61925 25.9772 0.958114L25.9783 0.958825ZM0.604704 14.2075C2.90516 23.9241 8.3476 31.3513 16.0998 37.2342C19.8695 24.6523 15.6223 16.4735 0.604704 14.2075ZM17.6976 38.1989C30.9012 46.2146 46.137 44.2985 46.2067 44.2315C39.7372 32.7628 30.288 30.5864 17.6976 38.1989Z" fill="#6FCF97"/>
</svg>
