<svg width="130" height="86" viewBox="0 0 130 86" fill="none" xmlns="http://www.w3.org/2000/svg">
<rect y="0.938477" width="130" height="84.6671" rx="15" fill="#DCFCF6"/>
<path d="M55.88 33.3391C55.192 33.3391 54.48 33.2351 53.744 33.0271C53.008 32.8031 52.32 32.4751 51.68 32.0431C51.424 31.8831 51.256 31.6751 51.176 31.4191C51.096 31.1631 51.08 30.9151 51.128 30.6751C51.192 30.4191 51.304 30.2031 51.464 30.0271C51.64 29.8351 51.856 29.7231 52.112 29.6911C52.368 29.6431 52.648 29.7071 52.952 29.8831C53.496 30.2031 54.008 30.4271 54.488 30.5551C54.968 30.6831 55.448 30.7471 55.928 30.7471C56.856 30.7471 57.64 30.5311 58.28 30.0991C58.92 29.6671 59.4 29.0191 59.72 28.1551C60.056 27.2751 60.224 26.1951 60.224 24.9151V23.1151H60.512C60.4 23.9151 60.136 24.6111 59.72 25.2031C59.304 25.7951 58.776 26.2511 58.136 26.5711C57.496 26.8751 56.784 27.0271 56 27.0271C55.04 27.0271 54.176 26.7951 53.408 26.3311C52.656 25.8671 52.064 25.2271 51.632 24.4111C51.2 23.5791 50.984 22.6431 50.984 21.6031C50.984 20.4991 51.216 19.5231 51.68 18.6751C52.16 17.8271 52.824 17.1631 53.672 16.6831C54.52 16.1871 55.488 15.9391 56.576 15.9391C57.984 15.9391 59.176 16.2671 60.152 16.9231C61.128 17.5791 61.872 18.5391 62.384 19.8031C62.896 21.0511 63.152 22.5631 63.152 24.3391C63.152 25.7791 62.984 27.0591 62.648 28.1791C62.328 29.2831 61.856 30.2191 61.232 30.9871C60.608 31.7551 59.84 32.3391 58.928 32.7391C58.032 33.1391 57.016 33.3391 55.88 33.3391ZM56.768 24.5791C57.344 24.5791 57.848 24.4511 58.28 24.1951C58.728 23.9231 59.072 23.5551 59.312 23.0911C59.552 22.6111 59.672 22.0671 59.672 21.4591C59.672 20.8351 59.552 20.2911 59.312 19.8271C59.072 19.3631 58.728 19.0031 58.28 18.7471C57.848 18.4911 57.344 18.3631 56.768 18.3631C56.192 18.3631 55.688 18.4911 55.256 18.7471C54.824 19.0031 54.48 19.3631 54.224 19.8271C53.984 20.2911 53.864 20.8351 53.864 21.4591C53.864 22.0671 53.984 22.6111 54.224 23.0911C54.48 23.5551 54.824 23.9231 55.256 24.1951C55.688 24.4511 56.192 24.5791 56.768 24.5791ZM68.1346 33.0991C67.7186 33.0991 67.3906 32.9871 67.1506 32.7631C66.9266 32.5231 66.8146 32.2031 66.8146 31.8031C66.8146 31.3871 66.9266 31.0751 67.1506 30.8671C67.3906 30.6591 67.7186 30.5551 68.1346 30.5551H70.8226V18.7711H72.3106L68.7826 20.9071C68.4786 21.0831 68.1906 21.1551 67.9186 21.1231C67.6626 21.0751 67.4386 20.9631 67.2466 20.7871C67.0706 20.5951 66.9506 20.3711 66.8866 20.1151C66.8226 19.8591 66.8386 19.6031 66.9346 19.3471C67.0466 19.0751 67.2546 18.8511 67.5586 18.6751L70.8706 16.6831C71.1906 16.4911 71.5106 16.3311 71.8306 16.2031C72.1506 16.0591 72.4466 15.9871 72.7186 15.9871C73.0546 15.9871 73.3346 16.0831 73.5586 16.2751C73.7826 16.4511 73.8946 16.7471 73.8946 17.1631V30.5551H76.3426C76.7586 30.5551 77.0786 30.6591 77.3026 30.8671C77.5426 31.0751 77.6626 31.3871 77.6626 31.8031C77.6626 32.2191 77.5426 32.5391 77.3026 32.7631C77.0786 32.9871 76.7586 33.0991 76.3426 33.0991H68.1346ZM57.2 66.3391C55.888 66.3391 54.76 66.1551 53.816 65.7871C52.888 65.4031 52.168 64.8511 51.656 64.1311C51.16 63.4111 50.912 62.5471 50.912 61.5391C50.912 60.7391 51.072 60.0351 51.392 59.4271C51.728 58.8031 52.184 58.2991 52.76 57.9151C53.336 57.5311 53.992 57.2911 54.728 57.1951V57.6991C53.704 57.4751 52.88 56.9871 52.256 56.2351C51.648 55.4671 51.344 54.5551 51.344 53.4991C51.344 52.5391 51.584 51.7231 52.064 51.0511C52.544 50.3631 53.224 49.8431 54.104 49.4911C54.984 49.1231 56.016 48.9391 57.2 48.9391C58.4 48.9391 59.44 49.1231 60.32 49.4911C61.2 49.8431 61.88 50.3631 62.36 51.0511C62.84 51.7231 63.08 52.5391 63.08 53.4991C63.08 54.2031 62.936 54.8511 62.648 55.4431C62.376 56.0351 61.984 56.5231 61.472 56.9071C60.976 57.2911 60.392 57.5471 59.72 57.6751V57.1951C60.84 57.3551 61.744 57.8271 62.432 58.6111C63.136 59.3791 63.488 60.3551 63.488 61.5391C63.488 62.5471 63.232 63.4111 62.72 64.1311C62.224 64.8511 61.504 65.4031 60.56 65.7871C59.632 66.1551 58.512 66.3391 57.2 66.3391ZM57.2 63.9391C58.336 63.9391 59.192 63.7231 59.768 63.2911C60.344 62.8431 60.632 62.1871 60.632 61.3231C60.632 60.4591 60.344 59.8111 59.768 59.3791C59.192 58.9471 58.336 58.7311 57.2 58.7311C56.08 58.7311 55.224 58.9471 54.632 59.3791C54.056 59.8111 53.768 60.4591 53.768 61.3231C53.768 62.1871 54.056 62.8431 54.632 63.2911C55.224 63.7231 56.08 63.9391 57.2 63.9391ZM57.2 56.3311C57.84 56.3311 58.384 56.2351 58.832 56.0431C59.28 55.8351 59.624 55.5391 59.864 55.1551C60.104 54.7711 60.224 54.3231 60.224 53.8111C60.224 53.0431 59.952 52.4431 59.408 52.0111C58.88 51.5631 58.144 51.3391 57.2 51.3391C56.256 51.3391 55.52 51.5631 54.992 52.0111C54.464 52.4431 54.2 53.0431 54.2 53.8111C54.2 54.5951 54.464 55.2111 54.992 55.6591C55.52 56.1071 56.256 56.3311 57.2 56.3311ZM70.2706 66.3391C69.5826 66.3391 68.8706 66.2351 68.1346 66.0271C67.3986 65.8031 66.7106 65.4751 66.0706 65.0431C65.8146 64.8831 65.6466 64.6751 65.5666 64.4191C65.4866 64.1631 65.4706 63.9151 65.5186 63.6751C65.5826 63.4191 65.6946 63.2031 65.8546 63.0271C66.0306 62.8351 66.2466 62.7231 66.5026 62.6911C66.7586 62.6431 67.0386 62.7071 67.3426 62.8831C67.8866 63.2031 68.3986 63.4271 68.8786 63.5551C69.3586 63.6831 69.8386 63.7471 70.3186 63.7471C71.2466 63.7471 72.0306 63.5311 72.6706 63.0991C73.3106 62.6671 73.7906 62.0191 74.1106 61.1551C74.4466 60.2751 74.6146 59.1951 74.6146 57.9151V56.1151H74.9026C74.7906 56.9151 74.5266 57.6111 74.1106 58.2031C73.6946 58.7951 73.1666 59.2511 72.5266 59.5711C71.8866 59.8751 71.1746 60.0271 70.3906 60.0271C69.4306 60.0271 68.5666 59.7951 67.7986 59.3311C67.0466 58.8671 66.4546 58.2271 66.0226 57.4111C65.5906 56.5791 65.3746 55.6431 65.3746 54.6031C65.3746 53.4991 65.6066 52.5231 66.0706 51.6751C66.5506 50.8271 67.2146 50.1631 68.0626 49.6831C68.9106 49.1871 69.8786 48.9391 70.9666 48.9391C72.3746 48.9391 73.5666 49.2671 74.5426 49.9231C75.5186 50.5791 76.2626 51.5391 76.7746 52.8031C77.2866 54.0511 77.5426 55.5631 77.5426 57.3391C77.5426 58.7791 77.3746 60.0591 77.0386 61.1791C76.7186 62.2831 76.2466 63.2191 75.6226 63.9871C74.9986 64.7551 74.2306 65.3391 73.3186 65.7391C72.4226 66.1391 71.4066 66.3391 70.2706 66.3391ZM71.1586 57.5791C71.7346 57.5791 72.2386 57.4511 72.6706 57.1951C73.1186 56.9231 73.4626 56.5551 73.7026 56.0911C73.9426 55.6111 74.0626 55.0671 74.0626 54.4591C74.0626 53.8351 73.9426 53.2911 73.7026 52.8271C73.4626 52.3631 73.1186 52.0031 72.6706 51.7471C72.2386 51.4911 71.7346 51.3631 71.1586 51.3631C70.5826 51.3631 70.0786 51.4911 69.6466 51.7471C69.2146 52.0031 68.8706 52.3631 68.6146 52.8271C68.3746 53.2911 68.2546 53.8351 68.2546 54.4591C68.2546 55.0671 68.3746 55.6111 68.6146 56.0911C68.8706 56.5551 69.2146 56.9231 69.6466 57.1951C70.0786 57.4511 70.5826 57.5791 71.1586 57.5791Z" fill="black"/>
<line x1="43" y1="40.2217" x2="87" y2="40.2217" stroke="black"/>
</svg>
