<svg width="141" height="93" viewBox="0 0 141 93" fill="none" xmlns="http://www.w3.org/2000/svg">
<rect y="0.22168" width="141" height="92.215" rx="15" fill="#DCFCF6"/>
<path d="M13.376 38.5284C13.024 38.5284 12.728 38.4324 12.488 38.2404C12.264 38.0324 12.144 37.7684 12.128 37.4484C12.128 37.1284 12.264 36.7924 12.536 36.4404L16.424 31.6404V33.0564L12.776 28.5684C12.488 28.2164 12.352 27.8804 12.368 27.5604C12.384 27.2404 12.504 26.9844 12.728 26.7924C12.968 26.5844 13.264 26.4804 13.616 26.4804C13.984 26.4804 14.288 26.5444 14.528 26.6724C14.784 26.8004 15.016 27.0004 15.224 27.2724L18.104 30.9684H17.048L19.952 27.2724C20.176 27.0004 20.408 26.8004 20.648 26.6724C20.888 26.5444 21.184 26.4804 21.536 26.4804C21.904 26.4804 22.2 26.5844 22.424 26.7924C22.648 27.0004 22.76 27.2644 22.76 27.5844C22.776 27.9044 22.64 28.2404 22.352 28.5924L18.728 33.0324V31.6884L22.616 36.4404C22.904 36.7764 23.04 37.1044 23.024 37.4244C23.008 37.7444 22.88 38.0084 22.64 38.2164C22.416 38.4244 22.12 38.5284 21.752 38.5284C21.4 38.5284 21.104 38.4644 20.864 38.3364C20.624 38.2084 20.392 38.0084 20.168 37.7364L17.048 33.8004H18.056L14.96 37.7364C14.752 37.9924 14.528 38.1924 14.288 38.3364C14.048 38.4644 13.744 38.5284 13.376 38.5284ZM31.3016 37.6404C30.9496 37.6404 30.6776 37.5444 30.4856 37.3524C30.2936 37.1444 30.1976 36.8644 30.1976 36.5124V32.5764H26.3336C25.9976 32.5764 25.7336 32.4884 25.5416 32.3124C25.3496 32.1204 25.2536 31.8564 25.2536 31.5204C25.2536 31.1844 25.3496 30.9284 25.5416 30.7524C25.7336 30.5604 25.9976 30.4644 26.3336 30.4644H30.1976V26.6484C30.1976 26.2964 30.2936 26.0244 30.4856 25.8324C30.6776 25.6404 30.9576 25.5444 31.3256 25.5444C31.6776 25.5444 31.9416 25.6404 32.1176 25.8324C32.3096 26.0244 32.4056 26.2964 32.4056 26.6484V30.4644H36.2696C36.6216 30.4644 36.8856 30.5604 37.0616 30.7524C37.2536 30.9284 37.3496 31.1844 37.3496 31.5204C37.3496 31.8564 37.2536 32.1204 37.0616 32.3124C36.8856 32.4884 36.6216 32.5764 36.2696 32.5764H32.4056V36.5124C32.4056 36.8644 32.3096 37.1444 32.1176 37.3524C31.9416 37.5444 31.6696 37.6404 31.3016 37.6404ZM43.0282 42.9204C42.6762 42.9204 42.3882 42.8244 42.1642 42.6324C41.9402 42.4564 41.8042 42.2164 41.7562 41.9124C41.7242 41.6084 41.7802 41.2884 41.9242 40.9524L43.5562 37.3284V38.5764L39.1882 28.4724C39.0442 28.1204 38.9962 27.7924 39.0442 27.4884C39.0922 27.1844 39.2362 26.9444 39.4762 26.7684C39.7322 26.5764 40.0762 26.4804 40.5082 26.4804C40.8762 26.4804 41.1722 26.5684 41.3962 26.7444C41.6202 26.9044 41.8202 27.2164 41.9962 27.6804L45.2362 35.7684H44.5162L47.8282 27.6564C48.0042 27.2084 48.2122 26.9044 48.4522 26.7444C48.6922 26.5684 49.0122 26.4804 49.4122 26.4804C49.7642 26.4804 50.0442 26.5764 50.2522 26.7684C50.4602 26.9444 50.5882 27.1844 50.6362 27.4884C50.6842 27.7764 50.6282 28.0964 50.4682 28.4484L44.6362 41.7684C44.4282 42.2164 44.2042 42.5204 43.9642 42.6804C43.7242 42.8404 43.4122 42.9204 43.0282 42.9204ZM58.325 37.6404C57.973 37.6404 57.701 37.5444 57.509 37.3524C57.317 37.1444 57.221 36.8644 57.221 36.5124V32.5764H53.357C53.021 32.5764 52.757 32.4884 52.565 32.3124C52.373 32.1204 52.277 31.8564 52.277 31.5204C52.277 31.1844 52.373 30.9284 52.565 30.7524C52.757 30.5604 53.021 30.4644 53.357 30.4644H57.221V26.6484C57.221 26.2964 57.317 26.0244 57.509 25.8324C57.701 25.6404 57.981 25.5444 58.349 25.5444C58.701 25.5444 58.965 25.6404 59.141 25.8324C59.333 26.0244 59.429 26.2964 59.429 26.6484V30.4644H63.293C63.645 30.4644 63.909 30.5604 64.085 30.7524C64.277 30.9284 64.373 31.1844 64.373 31.5204C64.373 31.8564 64.277 32.1204 64.085 32.3124C63.909 32.4884 63.645 32.5764 63.293 32.5764H59.429V36.5124C59.429 36.8644 59.333 37.1444 59.141 37.3524C58.965 37.5444 58.693 37.6404 58.325 37.6404ZM67.7956 38.4084C67.4916 38.4084 67.2356 38.3364 67.0276 38.1924C66.8356 38.0324 66.7076 37.8324 66.6436 37.5924C66.5796 37.3524 66.5796 37.0964 66.6436 36.8244C66.7236 36.5364 66.8756 36.2644 67.0996 36.0084L73.3156 28.2084V28.9284H67.6516C67.2836 28.9284 66.9956 28.8324 66.7876 28.6404C66.5956 28.4324 66.4996 28.1524 66.4996 27.8004C66.4996 27.4324 66.5956 27.1524 66.7876 26.9604C66.9956 26.7684 67.2836 26.6724 67.6516 26.6724H74.7556C75.1076 26.6724 75.3956 26.7524 75.6196 26.9124C75.8436 27.0564 75.9876 27.2484 76.0516 27.4884C76.1316 27.7284 76.1396 27.9844 76.0756 28.2564C76.0116 28.5284 75.8676 28.7844 75.6436 29.0244L69.3076 36.9444V36.1524H75.3076C76.0756 36.1524 76.4596 36.5284 76.4596 37.2804C76.4596 37.6324 76.3556 37.9124 76.1476 38.1204C75.9556 38.3124 75.6756 38.4084 75.3076 38.4084H67.7956ZM84.0828 37.6404C83.7308 37.6404 83.4588 37.5444 83.2668 37.3524C83.0748 37.1444 82.9788 36.8644 82.9788 36.5124V32.5764H79.1148C78.7788 32.5764 78.5148 32.4884 78.3228 32.3124C78.1308 32.1204 78.0348 31.8564 78.0348 31.5204C78.0348 31.1844 78.1308 30.9284 78.3228 30.7524C78.5148 30.5604 78.7788 30.4644 79.1148 30.4644H82.9788V26.6484C82.9788 26.2964 83.0748 26.0244 83.2668 25.8324C83.4588 25.6404 83.7388 25.5444 84.1068 25.5444C84.4588 25.5444 84.7228 25.6404 84.8988 25.8324C85.0908 26.0244 85.1868 26.2964 85.1868 26.6484V30.4644H89.0508C89.4028 30.4644 89.6668 30.5604 89.8428 30.7524C90.0348 30.9284 90.1308 31.1844 90.1308 31.5204C90.1308 31.8564 90.0348 32.1204 89.8428 32.3124C89.6668 32.4884 89.4028 32.5764 89.0508 32.5764H85.1868V36.5124C85.1868 36.8644 85.0908 37.1444 84.8988 37.3524C84.7228 37.5444 84.4508 37.6404 84.0828 37.6404ZM97.0814 38.6484C96.1054 38.6484 95.2974 38.4724 94.6574 38.1204C94.0174 37.7524 93.5374 37.2084 93.2174 36.4884C92.9134 35.7684 92.7614 34.8724 92.7614 33.8004V27.9924C92.7614 27.4804 92.8894 27.1044 93.1454 26.8644C93.4014 26.6084 93.7694 26.4804 94.2494 26.4804C94.7294 26.4804 95.0974 26.6084 95.3534 26.8644C95.6254 27.1044 95.7614 27.4804 95.7614 27.9924V33.8484C95.7614 34.6804 95.9294 35.2964 96.2654 35.6964C96.6014 36.0964 97.1374 36.2964 97.8734 36.2964C98.6734 36.2964 99.3294 36.0244 99.8414 35.4804C100.353 34.9204 100.609 34.1844 100.609 33.2724V27.9924C100.609 27.4804 100.737 27.1044 100.993 26.8644C101.249 26.6084 101.617 26.4804 102.097 26.4804C102.577 26.4804 102.945 26.6084 103.201 26.8644C103.473 27.1044 103.609 27.4804 103.609 27.9924V37.0644C103.609 38.0884 103.121 38.6004 102.145 38.6004C101.681 38.6004 101.321 38.4724 101.065 38.2164C100.809 37.9444 100.681 37.5604 100.681 37.0644V35.2404L101.017 35.9604C100.681 36.8244 100.169 37.4884 99.4814 37.9524C98.8094 38.4164 98.0094 38.6484 97.0814 38.6484ZM112.372 37.6404C112.02 37.6404 111.748 37.5444 111.556 37.3524C111.364 37.1444 111.268 36.8644 111.268 36.5124V32.5764H107.404C107.068 32.5764 106.804 32.4884 106.612 32.3124C106.42 32.1204 106.324 31.8564 106.324 31.5204C106.324 31.1844 106.42 30.9284 106.612 30.7524C106.804 30.5604 107.068 30.4644 107.404 30.4644H111.268V26.6484C111.268 26.2964 111.364 26.0244 111.556 25.8324C111.748 25.6404 112.028 25.5444 112.396 25.5444C112.748 25.5444 113.012 25.6404 113.188 25.8324C113.38 26.0244 113.476 26.2964 113.476 26.6484V30.4644H117.34C117.692 30.4644 117.956 30.5604 118.132 30.7524C118.324 30.9284 118.42 31.1844 118.42 31.5204C118.42 31.8564 118.324 32.1204 118.132 32.3124C117.956 32.4884 117.692 32.5764 117.34 32.5764H113.476V36.5124C113.476 36.8644 113.38 37.1444 113.188 37.3524C113.012 37.5444 112.74 37.6404 112.372 37.6404ZM126.499 38.6484C125.459 38.6484 124.587 38.4724 123.883 38.1204C123.195 37.7684 122.683 37.2564 122.347 36.5844C122.011 35.8964 121.843 35.0484 121.843 34.0404V28.9284H120.595C120.211 28.9284 119.915 28.8324 119.707 28.6404C119.498 28.4324 119.394 28.1524 119.394 27.8004C119.394 27.4324 119.498 27.1524 119.707 26.9604C119.915 26.7684 120.211 26.6724 120.595 26.6724H121.843V24.4884C121.843 23.9924 121.971 23.6164 122.227 23.3604C122.499 23.1044 122.875 22.9764 123.355 22.9764C123.835 22.9764 124.203 23.1044 124.459 23.3604C124.715 23.6164 124.843 23.9924 124.843 24.4884V26.6724H127.387C127.771 26.6724 128.067 26.7684 128.275 26.9604C128.483 27.1524 128.587 27.4324 128.587 27.8004C128.587 28.1524 128.483 28.4324 128.275 28.6404C128.067 28.8324 127.771 28.9284 127.387 28.9284H124.843V33.8724C124.843 34.6404 125.011 35.2164 125.347 35.6004C125.683 35.9844 126.227 36.1764 126.979 36.1764C127.251 36.1764 127.491 36.1524 127.699 36.1044C127.907 36.0564 128.091 36.0244 128.251 36.0084C128.443 35.9924 128.603 36.0564 128.731 36.2004C128.859 36.3284 128.923 36.6004 128.923 37.0164C128.923 37.3364 128.867 37.6244 128.755 37.8804C128.659 38.1204 128.475 38.2884 128.203 38.3844C127.995 38.4484 127.723 38.5044 127.387 38.5524C127.051 38.6164 126.755 38.6484 126.499 38.6484ZM63.9534 71.6484C63.1054 71.6484 62.2414 71.5364 61.3614 71.3124C60.4814 71.0884 59.6734 70.7444 58.9374 70.2804C58.6334 70.0884 58.4254 69.8644 58.3134 69.6084C58.2174 69.3364 58.1934 69.0724 58.2414 68.8164C58.3054 68.5444 58.4254 68.3204 58.6014 68.1444C58.7934 67.9524 59.0174 67.8404 59.2734 67.8084C59.5454 67.7764 59.8414 67.8484 60.1614 68.0244C60.7534 68.3604 61.3534 68.6164 61.9614 68.7924C62.5694 68.9684 63.2174 69.0564 63.9054 69.0564C64.5774 69.0564 65.1534 68.9364 65.6334 68.6964C66.1134 68.4564 66.4814 68.1204 66.7374 67.6884C66.9934 67.2564 67.1214 66.7524 67.1214 66.1764C67.1214 65.2804 66.8494 64.5604 66.3054 64.0164C65.7614 63.4564 65.0174 63.1764 64.0734 63.1764C63.5614 63.1764 63.0654 63.2644 62.5854 63.4404C62.1054 63.6004 61.6334 63.8884 61.1694 64.3044C61.0254 64.4324 60.8414 64.5604 60.6174 64.6884C60.3934 64.8004 60.1534 64.8564 59.8974 64.8564C59.4974 64.8564 59.1934 64.7524 58.9854 64.5444C58.7774 64.3364 58.6734 64.0484 58.6734 63.6804V55.8324C58.6734 55.4004 58.7854 55.0724 59.0094 54.8484C59.2494 54.6084 59.5854 54.4884 60.0174 54.4884H67.9134C68.3454 54.4884 68.6734 54.6004 68.8974 54.8244C69.1374 55.0324 69.2574 55.3444 69.2574 55.7604C69.2574 56.1604 69.1374 56.4724 68.8974 56.6964C68.6734 56.9204 68.3454 57.0324 67.9134 57.0324H61.6734V62.4084H60.8814C61.2974 61.8484 61.8494 61.4164 62.5374 61.1124C63.2254 60.8084 63.9774 60.6564 64.7934 60.6564C65.8654 60.6564 66.7934 60.8884 67.5774 61.3524C68.3774 61.8004 68.9934 62.4324 69.4254 63.2484C69.8734 64.0484 70.0974 64.9844 70.0974 66.0564C70.0974 67.1604 69.8494 68.1364 69.3534 68.9844C68.8574 69.8164 68.1454 70.4724 67.2174 70.9524C66.3054 71.4164 65.2174 71.6484 63.9534 71.6484Z" fill="black"/>
<line x1="11" y1="46.3357" x2="132" y2="46.3357" stroke="black"/>
</svg>
