<svg width="141" height="93" viewBox="0 0 141 93" fill="none" xmlns="http://www.w3.org/2000/svg">
<rect y="0.22168" width="141" height="92.215" rx="15" fill="#DCFCF6"/>
<path d="M73.344 52.8355C72.496 52.8355 71.632 52.7235 70.752 52.4995C69.872 52.2755 69.064 51.9315 68.328 51.4675C68.024 51.2755 67.816 51.0515 67.704 50.7955C67.608 50.5235 67.584 50.2595 67.632 50.0035C67.696 49.7315 67.816 49.5075 67.992 49.3315C68.184 49.1395 68.408 49.0275 68.664 48.9955C68.936 48.9635 69.232 49.0355 69.552 49.2115C70.144 49.5475 70.744 49.8035 71.352 49.9795C71.96 50.1555 72.608 50.2435 73.296 50.2435C73.968 50.2435 74.544 50.1235 75.024 49.8835C75.504 49.6435 75.872 49.3075 76.128 48.8755C76.384 48.4435 76.512 47.9395 76.512 47.3635C76.512 46.4675 76.24 45.7475 75.696 45.2035C75.152 44.6435 74.408 44.3635 73.464 44.3635C72.952 44.3635 72.456 44.4515 71.976 44.6275C71.496 44.7875 71.024 45.0755 70.56 45.4915C70.416 45.6195 70.232 45.7475 70.008 45.8755C69.784 45.9875 69.544 46.0435 69.288 46.0435C68.888 46.0435 68.584 45.9395 68.376 45.7315C68.168 45.5235 68.064 45.2355 68.064 44.8675V37.0195C68.064 36.5875 68.176 36.2595 68.4 36.0355C68.64 35.7955 68.976 35.6755 69.408 35.6755H77.304C77.736 35.6755 78.064 35.7875 78.288 36.0115C78.528 36.2195 78.648 36.5315 78.648 36.9475C78.648 37.3475 78.528 37.6595 78.288 37.8835C78.064 38.1075 77.736 38.2195 77.304 38.2195H71.064V43.5955H70.272C70.688 43.0355 71.24 42.6035 71.928 42.2995C72.616 41.9955 73.368 41.8435 74.184 41.8435C75.256 41.8435 76.184 42.0755 76.968 42.5395C77.768 42.9875 78.384 43.6195 78.816 44.4355C79.264 45.2355 79.488 46.1715 79.488 47.2435C79.488 48.3475 79.24 49.3235 78.744 50.1715C78.248 51.0035 77.536 51.6595 76.608 52.1395C75.696 52.6035 74.608 52.8355 73.344 52.8355Z" fill="black"/>
</svg>
