<svg width="130" height="86" viewBox="0 0 130 86" fill="none" xmlns="http://www.w3.org/2000/svg">
<rect y="0.938477" width="130" height="84.6671" rx="15" fill="#DCFCF6"/>
<path d="M51.2 31.2988C49.888 31.2988 48.76 31.1148 47.816 30.7468C46.888 30.3628 46.168 29.8108 45.656 29.0908C45.16 28.3708 44.912 27.5068 44.912 26.4988C44.912 25.6988 45.072 24.9948 45.392 24.3868C45.728 23.7628 46.184 23.2588 46.76 22.8748C47.336 22.4908 47.992 22.2508 48.728 22.1548V22.6588C47.704 22.4348 46.88 21.9468 46.256 21.1948C45.648 20.4268 45.344 19.5148 45.344 18.4588C45.344 17.4988 45.584 16.6828 46.064 16.0108C46.544 15.3228 47.224 14.8028 48.104 14.4508C48.984 14.0828 50.016 13.8988 51.2 13.8988C52.4 13.8988 53.44 14.0828 54.32 14.4508C55.2 14.8028 55.88 15.3228 56.36 16.0108C56.84 16.6828 57.08 17.4988 57.08 18.4588C57.08 19.1628 56.936 19.8108 56.648 20.4028C56.376 20.9948 55.984 21.4828 55.472 21.8668C54.976 22.2508 54.392 22.5068 53.72 22.6348V22.1548C54.84 22.3148 55.744 22.7868 56.432 23.5708C57.136 24.3388 57.488 25.3148 57.488 26.4988C57.488 27.5068 57.232 28.3708 56.72 29.0908C56.224 29.8108 55.504 30.3628 54.56 30.7468C53.632 31.1148 52.512 31.2988 51.2 31.2988ZM51.2 28.8988C52.336 28.8988 53.192 28.6828 53.768 28.2508C54.344 27.8028 54.632 27.1468 54.632 26.2828C54.632 25.4188 54.344 24.7708 53.768 24.3388C53.192 23.9068 52.336 23.6908 51.2 23.6908C50.08 23.6908 49.224 23.9068 48.632 24.3388C48.056 24.7708 47.768 25.4188 47.768 26.2828C47.768 27.1468 48.056 27.8028 48.632 28.2508C49.224 28.6828 50.08 28.8988 51.2 28.8988ZM51.2 21.2908C51.84 21.2908 52.384 21.1948 52.832 21.0028C53.28 20.7948 53.624 20.4988 53.864 20.1148C54.104 19.7308 54.224 19.2828 54.224 18.7708C54.224 18.0028 53.952 17.4028 53.408 16.9708C52.88 16.5228 52.144 16.2988 51.2 16.2988C50.256 16.2988 49.52 16.5228 48.992 16.9708C48.464 17.4028 48.2 18.0028 48.2 18.7708C48.2 19.5548 48.464 20.1708 48.992 20.6188C49.52 21.0668 50.256 21.2908 51.2 21.2908ZM64.2706 31.2988C63.5826 31.2988 62.8706 31.1948 62.1346 30.9868C61.3986 30.7628 60.7106 30.4348 60.0706 30.0028C59.8146 29.8428 59.6466 29.6348 59.5666 29.3788C59.4866 29.1228 59.4706 28.8748 59.5186 28.6348C59.5826 28.3788 59.6946 28.1628 59.8546 27.9868C60.0306 27.7948 60.2466 27.6828 60.5026 27.6508C60.7586 27.6028 61.0386 27.6668 61.3426 27.8428C61.8866 28.1628 62.3986 28.3868 62.8786 28.5148C63.3586 28.6428 63.8386 28.7068 64.3186 28.7068C65.2466 28.7068 66.0306 28.4908 66.6706 28.0588C67.3106 27.6268 67.7906 26.9788 68.1106 26.1148C68.4466 25.2348 68.6146 24.1548 68.6146 22.8748V21.0748H68.9026C68.7906 21.8748 68.5266 22.5708 68.1106 23.1628C67.6946 23.7548 67.1666 24.2108 66.5266 24.5308C65.8866 24.8348 65.1746 24.9868 64.3906 24.9868C63.4306 24.9868 62.5666 24.7548 61.7986 24.2908C61.0466 23.8268 60.4546 23.1868 60.0226 22.3708C59.5906 21.5388 59.3746 20.6028 59.3746 19.5628C59.3746 18.4588 59.6066 17.4828 60.0706 16.6348C60.5506 15.7868 61.2146 15.1228 62.0626 14.6428C62.9106 14.1468 63.8786 13.8988 64.9666 13.8988C66.3746 13.8988 67.5666 14.2268 68.5426 14.8828C69.5186 15.5388 70.2626 16.4988 70.7746 17.7628C71.2866 19.0108 71.5426 20.5228 71.5426 22.2988C71.5426 23.7388 71.3746 25.0188 71.0386 26.1388C70.7186 27.2428 70.2466 28.1788 69.6226 28.9468C68.9986 29.7148 68.2306 30.2988 67.3186 30.6988C66.4226 31.0988 65.4066 31.2988 64.2706 31.2988ZM65.1586 22.5388C65.7346 22.5388 66.2386 22.4108 66.6706 22.1548C67.1186 21.8828 67.4626 21.5148 67.7026 21.0508C67.9426 20.5708 68.0626 20.0268 68.0626 19.4188C68.0626 18.7948 67.9426 18.2508 67.7026 17.7868C67.4626 17.3228 67.1186 16.9628 66.6706 16.7068C66.2386 16.4508 65.7346 16.3228 65.1586 16.3228C64.5826 16.3228 64.0786 16.4508 63.6466 16.7068C63.2146 16.9628 62.8706 17.3228 62.6146 17.7868C62.3746 18.2508 62.2546 18.7948 62.2546 19.4188C62.2546 20.0268 62.3746 20.5708 62.6146 21.0508C62.8706 21.5148 63.2146 21.8828 63.6466 22.1548C64.0786 22.4108 64.5826 22.5388 65.1586 22.5388ZM49.88 64.2988C49.192 64.2988 48.48 64.1948 47.744 63.9868C47.008 63.7628 46.32 63.4348 45.68 63.0028C45.424 62.8428 45.256 62.6348 45.176 62.3788C45.096 62.1228 45.08 61.8748 45.128 61.6348C45.192 61.3788 45.304 61.1628 45.464 60.9868C45.64 60.7948 45.856 60.6828 46.112 60.6508C46.368 60.6028 46.648 60.6668 46.952 60.8428C47.496 61.1628 48.008 61.3868 48.488 61.5148C48.968 61.6428 49.448 61.7068 49.928 61.7068C50.856 61.7068 51.64 61.4908 52.28 61.0588C52.92 60.6268 53.4 59.9788 53.72 59.1148C54.056 58.2348 54.224 57.1548 54.224 55.8748V54.0748H54.512C54.4 54.8748 54.136 55.5708 53.72 56.1628C53.304 56.7548 52.776 57.2108 52.136 57.5308C51.496 57.8348 50.784 57.9868 50 57.9868C49.04 57.9868 48.176 57.7548 47.408 57.2908C46.656 56.8268 46.064 56.1868 45.632 55.3708C45.2 54.5388 44.984 53.6028 44.984 52.5628C44.984 51.4588 45.216 50.4828 45.68 49.6348C46.16 48.7868 46.824 48.1228 47.672 47.6428C48.52 47.1468 49.488 46.8988 50.576 46.8988C51.984 46.8988 53.176 47.2268 54.152 47.8828C55.128 48.5388 55.872 49.4988 56.384 50.7628C56.896 52.0108 57.152 53.5228 57.152 55.2988C57.152 56.7388 56.984 58.0188 56.648 59.1388C56.328 60.2428 55.856 61.1788 55.232 61.9468C54.608 62.7148 53.84 63.2988 52.928 63.6988C52.032 64.0988 51.016 64.2988 49.88 64.2988ZM50.768 55.5388C51.344 55.5388 51.848 55.4108 52.28 55.1548C52.728 54.8828 53.072 54.5148 53.312 54.0508C53.552 53.5708 53.672 53.0268 53.672 52.4188C53.672 51.7948 53.552 51.2508 53.312 50.7868C53.072 50.3228 52.728 49.9628 52.28 49.7068C51.848 49.4508 51.344 49.3228 50.768 49.3228C50.192 49.3228 49.688 49.4508 49.256 49.7068C48.824 49.9628 48.48 50.3228 48.224 50.7868C47.984 51.2508 47.864 51.7948 47.864 52.4188C47.864 53.0268 47.984 53.5708 48.224 54.0508C48.48 54.5148 48.824 54.8828 49.256 55.1548C49.688 55.4108 50.192 55.5388 50.768 55.5388ZM62.1346 64.0588C61.7186 64.0588 61.3906 63.9468 61.1506 63.7228C60.9266 63.4828 60.8146 63.1628 60.8146 62.7628C60.8146 62.3468 60.9266 62.0348 61.1506 61.8268C61.3906 61.6188 61.7186 61.5148 62.1346 61.5148H64.8226V49.7308H66.3106L62.7826 51.8668C62.4786 52.0428 62.1906 52.1148 61.9186 52.0828C61.6626 52.0348 61.4386 51.9228 61.2466 51.7468C61.0706 51.5548 60.9506 51.3308 60.8866 51.0748C60.8226 50.8188 60.8386 50.5628 60.9346 50.3068C61.0466 50.0348 61.2546 49.8108 61.5586 49.6348L64.8706 47.6428C65.1906 47.4508 65.5106 47.2908 65.8306 47.1628C66.1506 47.0188 66.4466 46.9468 66.7186 46.9468C67.0546 46.9468 67.3346 47.0428 67.5586 47.2348C67.7826 47.4108 67.8946 47.7068 67.8946 48.1228V61.5148H70.3426C70.7586 61.5148 71.0786 61.6188 71.3026 61.8268C71.5426 62.0348 71.6626 62.3468 71.6626 62.7628C71.6626 63.1788 71.5426 63.4988 71.3026 63.7228C71.0786 63.9468 70.7586 64.0588 70.3426 64.0588H62.1346Z" fill="black"/>
<line x1="37" y1="38.1816" x2="81" y2="38.1816" stroke="black"/>
</svg>
