<svg width="36" height="36" viewBox="0 0 36 36" fill="none" xmlns="http://www.w3.org/2000/svg">
<path d="M0.767891 17.7844C0.767047 20.8091 1.56355 23.7625 3.07808 26.3657L0.623047 35.2599L9.7963 32.8733C12.3335 34.2439 15.1762 34.962 18.065 34.9622H18.0726C27.6091 34.9622 35.372 27.2622 35.3761 17.798C35.378 13.2119 33.5796 8.89942 30.3124 5.65495C27.0456 2.41077 22.701 0.623187 18.0719 0.621094C8.53433 0.621094 0.771969 8.32063 0.768031 17.7844" fill="url(#paint0_linear_143_533)"/>
<path d="M0.150469 17.779C0.149484 20.9125 0.974531 23.9715 2.54306 26.6679L0 35.881L9.50217 33.4088C12.1203 34.8253 15.0681 35.572 18.0676 35.5732H18.0754C27.954 35.5732 35.9958 27.5962 36 17.7932C36.0017 13.0423 34.1387 8.57484 30.7547 5.21414C27.3703 1.85386 22.8703 0.00195349 18.0754 0C8.19506 0 0.154547 7.97581 0.150609 17.779H0.150469ZM5.80922 26.2035L5.45442 25.6447C3.96295 23.2916 3.17573 20.5723 3.17686 17.7801C3.18009 9.63195 9.86316 3.00279 18.081 3.00279C22.0607 3.00447 25.8007 4.54381 28.6138 7.33674C31.4267 10.13 32.9746 13.843 32.9736 17.7921C32.97 25.9402 26.2867 32.5702 18.0754 32.5702H18.0695C15.3958 32.5688 12.7735 31.8564 10.4867 30.51L9.94247 30.1898L4.30369 31.6567L5.80922 26.2034V26.2035Z" fill="url(#paint1_linear_143_533)"/>
<path d="M13.5948 10.3461C13.2592 9.60612 12.9061 9.59119 12.587 9.57821C12.3258 9.56705 12.0271 9.56789 11.7287 9.56789C11.43 9.56789 10.9447 9.67937 10.5345 10.1238C10.1239 10.5686 8.9668 11.6436 8.9668 13.83C8.9668 16.0165 10.5718 18.1295 10.7955 18.4263C11.0195 18.7225 13.8939 23.3528 18.4462 25.1341C22.2296 26.6144 22.9995 26.32 23.8206 26.2458C24.6418 26.1718 26.4705 25.1711 26.8436 24.1334C27.217 23.0958 27.217 22.2064 27.105 22.0205C26.9931 21.8354 26.6944 21.7242 26.2465 21.502C25.7985 21.2797 23.5966 20.2046 23.1861 20.0563C22.7755 19.9081 22.4769 19.8342 22.1782 20.2791C21.8795 20.7234 21.0219 21.7242 20.7605 22.0205C20.4993 22.3176 20.2379 22.3546 19.7901 22.1323C19.342 21.9093 17.8996 21.4406 16.1883 19.9268C14.8569 18.7489 13.958 17.2942 13.6967 16.8492C13.4354 16.405 13.6687 16.1641 13.8933 15.9427C14.0945 15.7436 14.3413 15.4237 14.5655 15.1644C14.7888 14.9048 14.8633 14.7197 15.0127 14.4233C15.1622 14.1266 15.0874 13.8671 14.9756 13.6448C14.8633 13.4225 13.993 11.2249 13.5948 10.3462" fill="white"/>
<defs>
<linearGradient id="paint0_linear_143_533" x1="17.9996" y1="35.2599" x2="17.9996" y2="0.621094" gradientUnits="userSpaceOnUse">
<stop stop-color="#1FAF38"/>
<stop offset="1" stop-color="#60D669"/>
</linearGradient>
<linearGradient id="paint1_linear_143_533" x1="18" y1="35.881" x2="18" y2="0" gradientUnits="userSpaceOnUse">
<stop stop-color="#F9F9F9"/>
<stop offset="1" stop-color="white"/>
</linearGradient>
</defs>
</svg>
